<svg xmlns="http://www.w3.org/2000/svg" xmlns:xlink="http://www.w3.org/1999/xlink" viewBox="0 0 840 211.608"><defs><linearGradient id="a" x1="194.4349" y1="152.1473" x2="194.4349" y2="215.694" gradientTransform="matrix(1, 0, 0, -1, 0, 219.8104)" gradientUnits="userSpaceOnUse"><stop offset="0" stop-color="#d0c4c1"/><stop offset="1" stop-color="#9d9695"/></linearGradient><linearGradient id="b" x1="251.5498" y1="152.0187" x2="251.5498" y2="215.5654" xlink:href="#a"/><linearGradient id="c" x1="299.853" y1="152.2759" x2="299.853" y2="215.8227" xlink:href="#a"/><linearGradient id="d" x1="363.9143" y1="152.2759" x2="363.9143" y2="215.8227" xlink:href="#a"/><linearGradient id="e" x1="660.4228" y1="152.3815" x2="660.4228" y2="216.1296" xlink:href="#a"/><linearGradient id="f" x1="604.4012" y1="152.4046" x2="604.4012" y2="216.0799" xlink:href="#a"/><linearGradient id="g" x1="547.0934" y1="152.2759" x2="547.0934" y2="215.9513" xlink:href="#a"/><linearGradient id="h" x1="486.7626" y1="152.3107" x2="486.7626" y2="215.986" xlink:href="#a"/><linearGradient id="i" x1="425.1455" y1="152.2759" x2="425.1455" y2="215.885" xlink:href="#a"/><linearGradient id="j" x1="769.0519" y1="120.4755" x2="760.6905" y2="103.2703" gradientTransform="matrix(1, 0, 0, -1, 0, 219.8104)" gradientUnits="userSpaceOnUse"><stop offset="0" stop-color="#510018"/><stop offset="1" stop-color="#1f0008"/></linearGradient><linearGradient id="k" x1="798.8526" y1="106.6177" x2="782.1298" y2="65.9362" xlink:href="#j"/><linearGradient id="l" x1="820.7253" y1="79.8622" x2="803.1448" y2="48.5604" xlink:href="#j"/><linearGradient id="m" x1="794.813" y1="47.5873" x2="776.9646" y2="14.7849" xlink:href="#j"/><linearGradient id="n" x1="729.1629" y1="112.9052" x2="716.2992" y2="86.3202" xlink:href="#j"/><linearGradient id="o" x1="711.431" y1="75.7106" x2="693.4218" y2="40.5498" xlink:href="#j"/><linearGradient id="p" x1="735.5911" y1="39.424" x2="714.5805" y2="-18.0338" xlink:href="#j"/><linearGradient id="q" x1="630.6006" y1="88.8838" x2="617.3082" y2="50.2927" xlink:href="#j"/><linearGradient id="r" x1="650.1505" y1="81.7828" x2="631.7126" y2="32.0432" xlink:href="#j"/><linearGradient id="s" x1="678.3763" y1="50.2078" x2="662.0822" y2="2.1834" xlink:href="#j"/><linearGradient id="t" x1="619.1626" y1="50.5734" x2="608.014" y2="0.4049" xlink:href="#j"/><linearGradient id="u" x1="547.4885" y1="117.9456" x2="545.2373" y2="87.0727" xlink:href="#j"/><linearGradient id="v" x1="592.5598" y1="58.0822" x2="584.8416" y2="30.6396" xlink:href="#j"/><linearGradient id="w" x1="518.2568" y1="62.782" x2="518.5784" y2="-14.4002" xlink:href="#j"/><linearGradient id="x" x1="556.8141" y1="39.9677" x2="550.0606" y2="-4.412" xlink:href="#j"/><linearGradient id="y" x1="476.9219" y1="113.599" x2="476.9219" y2="89.4796" xlink:href="#j"/><linearGradient id="z" x1="479.1997" y1="76.971" x2="478.235" y2="60.2482" xlink:href="#j"/><linearGradient id="aa" x1="467.5644" y1="42.9714" x2="466.5991" y2="0.5004" xlink:href="#j"/><linearGradient id="ab" x1="71.93" y1="118.0585" x2="80.9346" y2="96.6189" xlink:href="#j"/><linearGradient id="ac" x1="42.6967" y1="100.3052" x2="50.1991" y2="82.0852" xlink:href="#j"/><linearGradient id="ad" x1="25.8451" y1="70.9142" x2="33.1346" y2="49.9035" xlink:href="#j"/><linearGradient id="ae" x1="46.419" y1="47.4662" x2="56.7099" y2="18.5228" xlink:href="#j"/><linearGradient id="af" x1="120.401" y1="125.3928" x2="144.1989" y2="73.2948" xlink:href="#j"/><linearGradient id="ag" x1="140.3189" y1="57.5495" x2="156.2377" y2="17.0288" xlink:href="#j"/><linearGradient id="ah" x1="97.0924" y1="36.5062" x2="106.5794" y2="4.1862" xlink:href="#j"/><linearGradient id="ai" x1="230.7598" y1="62.66" x2="255.5224" y2="-0.0506" xlink:href="#j"/><linearGradient id="aj" x1="159.0783" y1="64.9193" x2="174.9971" y2="24.3986" xlink:href="#j"/><linearGradient id="ak" x1="197.1412" y1="42.965" x2="207.7538" y2="3.7307" xlink:href="#j"/><linearGradient id="al" x1="287.0942" y1="85.6124" x2="291.2139" y2="63.7514" xlink:href="#j"/><linearGradient id="am" x1="298.1402" y1="78.3336" x2="304.7729" y2="43.5513" xlink:href="#j"/><linearGradient id="an" x1="255.7576" y1="52.6114" x2="267.3349" y2="12.4123" xlink:href="#j"/><linearGradient id="ao" x1="316.1777" y1="55.5171" x2="320.0369" y2="-2.7983" xlink:href="#j"/><linearGradient id="ap" x1="393.1928" y1="115.4303" x2="392.3352" y2="76.4103" xlink:href="#j"/><linearGradient id="aq" x1="381.5101" y1="88.1381" x2="384.4044" y2="65.3051" xlink:href="#j"/><linearGradient id="ar" x1="376.8265" y1="43.3959" x2="377.7912" y2="7.3775" xlink:href="#j"/><linearGradient id="as" x1="822.7591" y1="6.7022" x2="791.0286" y2="130.6226" gradientTransform="matrix(1, 0, 0, -1, 0, 219.8104)" gradientUnits="userSpaceOnUse"><stop offset="0" stop-color="#f7eb87"/><stop offset="1" stop-color="#e57834"/></linearGradient><linearGradient id="at" x1="728.9219" y1="47.1366" x2="728.9219" y2="89.5889" xlink:href="#as"/><linearGradient id="au" x1="641.7703" y1="47.1203" x2="641.7703" y2="89.5727" xlink:href="#as"/><linearGradient id="av" x1="554.1041" y1="47.1366" x2="554.1041" y2="89.5889" xlink:href="#as"/><linearGradient id="aw" x1="467.5314" y1="47.1366" x2="467.5314" y2="89.5889" xlink:href="#as"/><linearGradient id="ax" x1="111.9142" y1="47.1366" x2="111.9142" y2="89.5889" xlink:href="#as"/><linearGradient id="ay" x1="203.9541" y1="47.1366" x2="203.9541" y2="89.5889" xlink:href="#as"/><linearGradient id="az" x1="289.6264" y1="47.1366" x2="289.6264" y2="89.5889" xlink:href="#as"/><linearGradient id="ba" x1="376.6493" y1="47.1366" x2="376.6493" y2="89.5889" xlink:href="#as"/><linearGradient id="bb" x1="19.7795" y1="47.2485" x2="56.441" y2="134.7217" xlink:href="#as"/><linearGradient id="bc" x1="300.8433" y1="51.2959" x2="329.2721" y2="51.2959" gradientTransform="matrix(1, 0, 0, -1, 0, 219.8104)" gradientUnits="userSpaceOnUse"><stop offset="0" stop-color="#b9432d"/><stop offset="1" stop-color="#923724"/></linearGradient><linearGradient id="bd" x1="333.0414" y1="51.2959" x2="420.2573" y2="51.2959" xlink:href="#bc"/><linearGradient id="be" x1="164.5268" y1="52.0677" x2="224.2144" y2="52.0677" xlink:href="#bc"/><linearGradient id="bf" x1="242.181" y1="52.0677" x2="270.6098" y2="52.0677" xlink:href="#bc"/><linearGradient id="bg" x1="55.5712" y1="52.0677" x2="123.7489" y2="52.0677" xlink:href="#bc"/><linearGradient id="bh" x1="153.927" y1="62.4873" x2="170.3367" y2="62.4873" xlink:href="#bc"/><linearGradient id="bi" x1="224.0124" y1="62.4873" x2="240.2207" y2="62.4873" xlink:href="#bc"/><linearGradient id="bj" x1="124.778" y1="62.4873" x2="150.1749" y2="62.4873" xlink:href="#bc"/><linearGradient id="bk" x1="23.7979" y1="58.7568" x2="53.8989" y2="58.7568" xlink:href="#bc"/><linearGradient id="bl" x1="3.9088" y1="81.2683" x2="36.1967" y2="81.2683" xlink:href="#bc"/><linearGradient id="bm" x1="529.3415" y1="51.2959" x2="588.1287" y2="51.2959" xlink:href="#bc"/><linearGradient id="bn" x1="606.1724" y1="51.2959" x2="634.6012" y2="51.2959" xlink:href="#bc"/><linearGradient id="bo" x1="664.962" y1="51.2959" x2="693.3908" y2="51.2959" xlink:href="#bc"/><linearGradient id="bp" x1="424.1164" y1="51.2959" x2="511.3323" y2="51.2959" xlink:href="#bc"/><linearGradient id="bq" x1="697.2129" y1="51.2959" x2="784.4288" y2="51.2959" xlink:href="#bc"/><linearGradient id="br" x1="785.5865" y1="58.7568" x2="815.6876" y2="58.7568" xlink:href="#bc"/><linearGradient id="bs" x1="514.1094" y1="62.4873" x2="530.4897" y2="62.4873" xlink:href="#bc"/><linearGradient id="bt" x1="583.3173" y1="62.4873" x2="600.4069" y2="62.4873" xlink:href="#bc"/><linearGradient id="bu" x1="803.2734" y1="81.3969" x2="835.5658" y2="81.3969" xlink:href="#bc"/><linearGradient id="bv" x1="655.7381" y1="41.6006" x2="654.9484" y2="8.1672" xlink:href="#j"/><linearGradient id="bw" x1="600.2063" y1="39.548" x2="598.1554" y2="10.4727" xlink:href="#j"/></defs><title>dungeons</title><g><g><polygon points="167.614 90.946 144.074 69.207 166.199 0.386 192.055 0.386 204.662 17.495 206.077 12.221 213.28 12.221 216.368 0.386 242.995 0.257 244.539 3.087 245.182 0.257 272.067 0.257 273.482 3.216 273.997 0.257 301.139 0.257 305.899 12.349 306.542 12.349 307.828 15.565 310.015 0.257 337.415 0.257 338.444 3.73 338.83 0.257 395.816 0.129 398.646 25.985 398.003 41.164 396.717 41.164 397.746 49.139 397.103 65.348 395.559 65.348 396.717 73.966 396.074 90.946 339.602 90.946 338.444 87.602 338.058 90.946 310.916 90.946 303.969 76.539 301.911 90.946 275.026 90.946 273.354 88.245 272.968 90.946 246.34 90.946 244.539 88.374 244.024 90.946 217.654 90.946 206.205 77.825 199.259 77.825 197.329 75.639 193.213 90.946 167.614 90.946"/><path d="M483.5467,86.83l-.9,3.9878H454.732l-2.1869-64.9617L454.8606,0h57.1148l.3859,3.7305L513.39,0h56.6l.5146,3.0873L571.92,0h56.2144l.6432,2.7014L630.45,0h55.8285l5.1455,16.3369-11.0627,13.25.1286.3859c.7718,2.5728,1.5436,5.2742,2.3154,7.8469.5146,1.93,3.7305,11.9633,3.7305,11.9633l1.93,6.4318c.5146,1.8009,1.0291,3.4732,1.5436,5.2741s1.0291,3.6019,1.5437,5.2742l.5146,2.1868L670.0705,90.8178H643.7l-10.42-42.45L621.1884,65.219H612.57l.7718,3.4733L597.905,90.8178H571.1486l-.5146-2.83-1.6723,2.83H541.9479l-.3859-3.0873-1.4149,3.0873H512.876l-.3859-3.4732-1.1577,3.4732h-27.657Z"/><polygon points="394.273 68.306 396.588 0.129 454.089 0.129 454.603 15.822 452.674 41.164 425.789 41.164 425.403 50.554 455.632 50.554 456.147 68.306 453.96 90.946 396.974 90.946 394.273 68.306"/><polygon points="193.342 15.951 189.74 28.429 205.562 28.429 208.907 16.08 216.239 16.08 219.326 4.116 240.294 4.116 225.501 67.534 202.861 67.534 209.678 40.649 201.574 40.649 197.972 53.77 183.308 53.77 187.038 40.649 178.806 40.649 170.83 67.534 148.576 67.663 169.029 4.245 189.482 4.116 186.138 15.694 193.342 15.951" fill="url(#a)"/><polygon points="269.109 4.245 256.631 67.663 233.991 67.792 248.141 4.245 269.109 4.245" fill="url(#b)"/><polygon points="299.596 47.081 301.525 33.96 293.293 33.832 287.89 67.534 265.378 67.534 277.213 4.116 298.181 4.116 296.251 15.822 303.455 15.951 301.783 28.3 309.887 28.429 313.231 3.988 334.328 3.988 326.867 67.534 304.227 67.534 307.057 47.338 299.596 47.081" fill="url(#c)"/><polygon points="390.028 54.413 389.513 67.534 335.614 67.534 342.303 3.988 392.214 3.988 391.828 15.179 362.371 15.179 361.47 28.172 391.185 28.3 390.671 40.521 360.312 40.521 359.283 54.285 390.028 54.413" fill="url(#d)"/><path d="M683.32,3.7305l3.6018,11.32h-14.536l.1286.3859c.6432,2.4441,1.2864,5.0169,1.93,7.59s1.415,5.1455,2.1868,7.8469,1.5437,5.4027,2.4442,8.1041c.7718,2.7014,1.6722,5.4028,2.4441,8.2328q.7719,2.5084,1.5437,5.0169c.5146,1.6722,1.0291,3.3445,1.5436,5.1454.5146,1.6723,1.0291,3.4733,1.5437,5.1455s1.0291,3.4732,1.5437,5.1455H664.9251L650.6464,15.1792H635.9817l-2.83-11.32Z" fill="url(#e)"/><polygon points="630.965 27.786 634.052 40.392 603.565 40.392 609.225 67.406 586.456 67.406 574.75 3.73 625.047 3.73 627.749 15.051 598.162 15.051 600.864 27.786 630.965 27.786" fill="url(#f)"/><path d="M543.4916,46.9525l2.83,20.582H523.5528l-7.075-63.6754h50.1685L577.709,67.5345H554.94l-2.9586-20.4533Zm14.7932-24.9556-1.2863-8.1041h-9.9051l.9005,7.4609h-7.8468l-1.0291-7.3323H529.47l1.0291,8.1042h8.876l.3859,2.9586h-4.3737L537.06,37.562h5.2741l-.3859-4.245h7.8469l.6431,4.245h5.4028l-1.9295-12.3491h-4.3737l-.3859-2.9587,9.1332-.2573" fill="url(#g)"/><path d="M504.1286,34.4747h7.461l3.3445,32.9311h-22.64l-2.0582-26.8851-8.3614-.2573,1.8009,27.0138h-22.64L458.5911,3.7305H508.76l2.3155,23.5406h-7.4609Zm-14.7932-6.3032-1.0291-13.121h-8.1041l.9005,13.121h8.2327" fill="url(#h)"/><polygon points="421.672 15.179 450.744 15.179 450.358 3.859 400.319 3.988 398.132 67.534 452.159 67.534 451.773 54.413 420.9 54.413 421.672 15.179" fill="url(#i)"/><path d="M151.5345,67.6631c-1.5437,0-1.93.9-.7719,1.93l16.2083,15.565a8.5833,8.5833,0,0,0,4.8882,1.93h14.4074c1.5436,0,1.9295-.9.9-2.0582L172.8882,69.7213a7.3128,7.3128,0,0,0-4.76-2.0582Z" fill="#212428"/><path d="M205.8193,67.5345c-1.5436,0-2.0582,1.029-1.0291,2.1868l12.6065,15.1792a7.14,7.14,0,0,0,4.6309,2.1868h15.0505c1.5437,0,2.0582-1.0291,1.1578-2.3154L227.1731,69.85a6.2111,6.2111,0,0,0-4.5023-2.3154Z" fill="#212428"/><path d="M186.2665,53.77c-1.5437,0-2.0582.9-.9,2.1868l14.15,15.951a6.6511,6.6511,0,0,0,4.3736,2.0582c1.2864,0,1.6723-1.1577.7719-2.4441l-1.0291-1.5436a7.1812,7.1812,0,0,1-.9-5.1455l.3859-1.1578a6.35,6.35,0,0,0-1.0291-5.0168l-2.0582-2.5727A6.58,6.58,0,0,0,195.4,53.8989Z" fill="#212428"/><path d="M236.95,67.7917c-1.5437,0-2.0582,1.0291-1.1578,2.3155L246.5972,84.9A6.2108,6.2108,0,0,0,251.1,87.2159h14.9219c1.5437,0,2.1869-1.0291,1.2864-2.4441l-9.1332-14.536a6.0932,6.0932,0,0,0-4.3737-2.4441Z" fill="#212428"/><path d="M268.2083,67.5345a1.5,1.5,0,0,0-1.415,2.4441l8.7473,14.4073a5.8612,5.8612,0,0,0,4.3736,2.4441H294.45a1.6146,1.6146,0,0,0,1.5437-2.5727l-6.9464-14.15a4.9978,4.9978,0,0,0-4.1164-2.5727Z" fill="#212428"/><path d="M307.1853,67.5345a1.6933,1.6933,0,0,0-1.6723,2.5727l6.6892,14.4074a4.8261,4.8261,0,0,0,4.1164,2.5727h15.0505a1.91,1.91,0,0,0,1.93-2.7014l-5.1455-14.15a4.5559,4.5559,0,0,0-3.8591-2.7013Z" fill="#212428"/><path d="M338.4441,67.5345a1.91,1.91,0,0,0-1.93,2.7013L341.4027,84a4.1968,4.1968,0,0,0,3.8591,2.7014h44.1225a2.41,2.41,0,0,0,2.4441-2.83l-1.9295-13.5069a3.4218,3.4218,0,0,0-3.216-2.83Z" fill="#212428"/><path d="M400.9617,67.5345a2.5691,2.5691,0,0,0-2.5727,2.83l1.5436,13.8928a3.2152,3.2152,0,0,0,3.216,2.83h43.8652a3.4217,3.4217,0,0,0,3.2159-2.83l1.6723-13.8928a2.5009,2.5009,0,0,0-2.5728-2.83Z" fill="#212428"/><path d="M463.7366,67.5345a3.4217,3.4217,0,0,0-3.2159,2.83L458.8484,84a2.41,2.41,0,0,0,2.4441,2.83h14.7933A3.7067,3.7067,0,0,0,479.559,84l3.3446-13.7642a2.1889,2.1889,0,0,0-2.1869-2.83Z" fill="#212428"/><path d="M495.124,67.5345a3.7066,3.7066,0,0,0-3.4732,2.83L488.4349,84a2.189,2.189,0,0,0,2.1869,2.83h14.6646a4.3358,4.3358,0,0,0,3.8591-2.7014l4.8882-13.7642a1.91,1.91,0,0,0-1.93-2.7014Z" fill="#212428"/><path d="M526.5115,67.5345a4.3355,4.3355,0,0,0-3.8591,2.7013l-4.8882,14.0215a1.91,1.91,0,0,0,1.93,2.7014H534.487a5.1826,5.1826,0,0,0,4.1164-2.5728l6.6891-14.15a1.6933,1.6933,0,0,0-1.6722-2.5727Z" fill="#212428"/><path d="M557.899,67.4058a4.9974,4.9974,0,0,0-4.1164,2.5728l-6.9465,14.2787c-.6432,1.415,0,2.5727,1.5437,2.5727h15.3078a5.6132,5.6132,0,0,0,4.245-2.4441l8.3614-14.4073c.7718-1.4151.1286-2.4441-1.4149-2.4441Z" fill="#212428"/><path d="M589.2863,67.4058a6.0928,6.0928,0,0,0-4.3736,2.4441l-8.876,14.536c-.7718,1.2863-.2573,2.4441,1.4149,2.4441h15.0506a6.2107,6.2107,0,0,0,4.5023-2.3155l10.5482-14.7932c.9005-1.2864.3859-2.3155-1.1577-2.3155Z" fill="#212428"/><path d="M667.755,67.4058a7.456,7.456,0,0,0-4.76,2.1869l-13.121,14.9219c-1.0291,1.1577-.6432,2.1868,1.0291,2.1868h14.4073a7.9333,7.9333,0,0,0,4.8882-2.0582L685.7641,69.464c1.1577-1.1577.7718-2.0582-.7718-2.0582Z" fill="#212428"/><polygon points="164.913 15.436 186.395 15.565 186.524 14.021 165.556 14.021 164.913 15.436"/><polygon points="165.041 44.251 155.394 44.251 155.394 45.538 163.112 45.538 157.838 61.746 175.461 61.746 175.461 60.331 159.767 60.331 161.954 53.899 176.747 53.899 176.747 52.484 162.34 52.484 165.041 44.251"/><polygon points="226.53 14.536 216.11 14.536 215.596 15.951 224.858 15.951 223.443 26.499 203.375 26.499 203.375 27.786 223.314 27.786 224.086 27.786 237.207 27.786 237.207 26.499 224.858 26.499 226.53 14.536"/><polygon points="246.211 56.858 244.282 59.945 242.738 68.049 246.855 74.095 249.942 76.41 244.153 67.792 246.211 56.858"/><polygon points="267.951 16.337 256.116 16.466 259.075 17.623 267.951 17.623 267.951 16.337"/><polygon points="277.084 60.331 275.026 63.418 274.126 67.534 276.055 72.551 278.113 75.381 275.541 67.406 277.084 60.331"/><polygon points="267.951 46.953 267.822 48.368 290.334 49.525 292.263 52.355 293.421 51.712 291.106 48.11 267.951 46.953"/><polygon points="289.562 15.565 296.766 15.565 296.766 14.15 287.247 14.021 289.562 15.565"/><polygon points="305.256 47.596 305.256 49.011 320.821 48.368 317.991 67.534 320.049 74.609 322.493 78.083 319.406 67.406 322.493 46.953 305.256 47.596"/><path d="M311.43,15.1792c.6432.1286,16.4655,2.83,22.2542,2.83v-1.415c-5.66,0-21.8683-2.7014-21.9969-2.7014Z"/><polygon points="347.191 53.256 335.485 53.256 335.485 54.542 345.776 54.542 345.391 67.277 347.963 77.311 349.893 80.784 346.805 67.149 347.191 53.256"/><polygon points="338.959 23.155 350.407 23.155 353.495 21.611 338.959 21.868 338.959 23.155"/><polygon points="377.035 26.628 375.62 26.628 375.62 39.363 377.164 35.89 377.035 26.628"/><polygon points="383.724 57.758 373.305 57.758 373.305 68.178 374.72 68.178 374.72 59.173 385.011 59.173 385.268 51.841 383.853 51.841 383.724 57.758"/><polygon points="439.939 59.044 440.839 67.663 438.138 87.73 439.81 87.602 442.254 67.792 441.096 56.858 439.939 59.044"/><rect x="398.9035" y="78.9831" width="6.6891" height="1.415"/><path d="M405.5926,25.0842c8.1042,0,16.98,3.8591,16.98,3.8591l.5145-1.2863c-.3859-.1287-11.9632-3.9878-20.3246-3.9878Z"/><polygon points="405.078 36.404 398.646 36.533 398.646 37.948 402.763 37.948 405.078 36.404"/><path d="M468.6248,26.6279h7.2037a1.7216,1.7216,0,0,1,1.2864,1.0291l1.1577-.7719a3.514,3.514,0,0,0-2.3155-1.6722h-6.1745L467.3385,2.9586l-1.415.1287,2.0582,18.781H457.3048v1.415H468.11Z"/><path d="M466.6953,60.4594c-1.93.9005-3.0873,5.4028-3.3446,6.8178l1.2863.2573c.6432-2.83,1.93-5.9174,2.83-5.9174h.7718l-.9005-13.3782h16.98v-1.415H465.7948Z"/><polygon points="489.721 52.484 503.1 52.484 505.672 51.069 489.721 51.069 489.721 52.484"/><polygon points="496.925 32.931 505.029 32.931 505.029 31.516 495.381 31.645 496.925 32.931"/><rect x="468.6471" y="70.4856" width="1.415" height="22.3831" transform="matrix(0.0722, -0.9974, 0.9974, 0.0722, 353.9952, 543.9078)"/><path d="M551.3384,51.3262v1.415c.2573,0,18.91-.2573,25.9847,2.4441l.5146-1.2864C570.3767,51.1975,552.11,51.3262,551.3384,51.3262Z"/><path d="M616.4288,25.9847c3.3445,9.5191.7718,14.9219.7718,14.9219l1.2864.6432c.1286-.2573,2.83-5.9173-.6432-15.951Z"/><polygon points="603.694 8.49 602.021 2.959 600.735 3.345 602.665 9.776 608.067 9.776 610.64 17.495 611.927 16.98 608.968 8.49 603.694 8.49"/><rect x="658.1072" y="48.6248" width="24.9556" height="1.415"/><polygon points="676.116 15.822 672.643 3.216 671.228 3.602 674.701 16.208 676.116 15.822"/><path d="M215.21,15.6937h6.3032c1.5437,0,1.5437-.2573,0-.5145l-2.3154-.5146c-1.5437-.2572-2.7014,0-2.5728.6432Z"/><path d="M180.4778,77.0536a5.3021,5.3021,0,0,0-3.9878-.9005l-3.73.5146c-1.5437.1286-1.5437.5145,0,.6431l6.0459.7719C180.3492,78.2113,181.121,77.6968,180.4778,77.0536Z"/><path d="M239.1363,84.6432c-.3859-.6432-2.0582-1.1578-3.6018-1.0291l-7.8469.6432c-1.5436.1286-1.5436.3859,0,.5145l9.5192.9005C238.75,85.8009,239.6508,85.415,239.1363,84.6432Z"/><path d="M310.2726,81.8132c-.1287-.6432.9-1.1578,2.5727-1.0291h2.1869c1.5436,0,1.6722.3859.1286.9005l-1.6723.5145C311.8162,82.585,310.4012,82.4564,310.2726,81.8132Z"/><path d="M391.5712,77.3109c-.1286-.9005-1.5436-1.5437-3.0873-1.2864l-5.66.7718c-1.5436.2573-1.5436.6432,0,.9l6.046.9005C390.4135,78.8545,391.5712,78.2113,391.5712,77.3109Z"/><path d="M398.26,80.5268c-.1286-.9,1.1577-1.5437,2.7014-1.415h.3859c1.5437.1286,1.6723.9.2573,1.5436l-.6432.2573C399.5467,81.8132,398.389,81.5559,398.26,80.5268Z"/><path d="M346.9341,64.7044c-.1286-1.415-.5145-1.5436-.7718-.2573a11.3719,11.3719,0,0,0,.3859,5.0169l.3859,1.415c.5145,1.5436.7718,1.415.6432-.1287v-.7718C347.32,68.5635,347.0628,66.1194,346.9341,64.7044Z"/><path d="M373.8193,65.7335c-.2573-.5145-.5146.2573-.5146,1.801v1.029c0,1.5437.2573,1.8009.5146.5146A4.8815,4.8815,0,0,0,373.8193,65.7335Z"/><path d="M319.1485,65.219c0-1.4151-.3859-1.4151-.5145,0a14.8569,14.8569,0,0,0,.3859,5.2741l.5145,1.5437c.5146,1.5436.6432,1.415.3859-.1287l-.2573-1.2864C319.5345,68.95,319.2772,66.634,319.1485,65.219Z"/><path d="M275.2833,66.2481c-.2573-.5146-.6432-.5146-.9.2573a3.8668,3.8668,0,0,0,.5145,2.83c.5145.9,1.0291.7718.9005-.2573A7.9405,7.9405,0,0,0,275.2833,66.2481Z"/><path d="M244.6677,65.219c-.2573-1.4151-.9-1.2864-1.2864.2573v.2572a5.3584,5.3584,0,0,0,1.415,4.76l.1287.1287c1.1577,1.1577,1.6722.9,1.1577-.3859A36.6351,36.6351,0,0,1,244.6677,65.219Z"/><path d="M189.3538,63.1608c-.386-.5145.5145-.9005,2.0582-.7718l4.8881.3859c1.5437.1286,1.5437.3859,0,.6432l-3.3445.3858C191.412,64.0612,189.8683,63.804,189.3538,63.1608Z"/><path d="M440.9678,64.0612c.2573-1.5436.6432-1.5436,1.0291,0l.1287.9a13.3679,13.3679,0,0,1-.1287,5.5314l-.6432,2.3154c-.3859,1.5437-.7718,1.4151-.7718-.1286V70.4931a41.84,41.84,0,0,1,.3859-5.66Z"/><path d="M422.4441,28.686c0,.6432-1.0291.5146-2.3154-.3859L419.1,27.6569c-1.2864-.9-1.1577-1.2863.3859-.9h.2573C421.1577,27.0138,422.4441,27.9142,422.4441,28.686Z"/><path d="M512.49,75.51c.1287-.6432-.9-1.1577-2.5727-1.0291l-2.3154.1287c-1.5437,0-1.6723.3859-.1287.9005l1.93.5145C510.9464,76.41,512.2328,76.1531,512.49,75.51Z"/><path d="M500.9127,65.7335c-.3859-.9-.7718-.3859-.6432,1.1578v.5145c0,1.5437.3859,2.1869.7719,1.415A3.73,3.73,0,0,0,500.9127,65.7335Z"/><path d="M541.8193,78.4686c.2573-.6432-.7718-1.1577-2.4441-1.0291l-5.7887.5146c-1.5436.1286-1.5436.3859,0,.6431l5.0169.7719C540.147,79.4977,541.562,79.1118,541.8193,78.4686Z"/><path d="M536.1593,66.1194c-.2573-.7718-.6432-.7718-.7718-.1286a10.9143,10.9143,0,0,0,.1286,3.4732c.2573,1.1577.6432,1.2864.7718.1287A10.0829,10.0829,0,0,0,536.1593,66.1194Z"/><path d="M617.8438,41.55c-.5146-.1287-.5146-1.5437.1286-2.9587h0c.6432-1.415,1.0291-1.2864,1.0291.2573v.2572C619.0016,40.6493,618.487,41.6784,617.8438,41.55Z"/><path d="M579.1241,76.7963c.5145-.6432,2.3154-1.0291,3.8591-.9005l8.2328,1.2864c1.5436.2573,1.5436.5145,0,.5145l-10.1624.2573C579.3813,78.0827,578.4809,77.5681,579.1241,76.7963Z"/><path d="M654.7626,76.7963a4.36,4.36,0,0,1,4.1164-1.1577l7.59,1.415c1.5436.2573,1.5436.6432,0,.7718l-10.0337.6432C654.7626,78.4686,654.12,77.8254,654.7626,76.7963Z"/><path d="M657.7213,49.1394c-.2573-1.0291.6432-1.801,2.3154-1.5437l6.8178,1.0291c1.5436.2573,1.5436.6432,0,.9005l-5.66,1.0291A2.9866,2.9866,0,0,1,657.7213,49.1394Z"/><g opacity="0.5"><path d="M650.0031,17.1087c-.5146-.3859-1.0291-2.0582-1.0291-3.6018v-.5146c0-1.5436.2573-1.6723.6432-.1286l.6431,2.3155C650.6462,16.7228,650.5176,17.4946,650.0031,17.1087Z"/></g><path d="M576.68,55.7l-4.245-1.6722c-1.415-.6432-1.415-.9005.1286-.7719l4.5023.3859"/><g opacity="0.5"><path d="M418.3277,69.0781a6.2646,6.2646,0,0,0,0-3.0873c-.2573-.7718-1.8009-1.5437-3.4732-1.5437h-1.93c-1.5436,0-3.3445.7719-3.8591,1.6723s.2573,2.0582,1.6723,2.5727l4.245,1.1578C416.5268,70.3644,418.0705,69.9786,418.3277,69.0781Z"/></g><path d="M415.6263,66.7626c-1.0291-1.1577-1.0291-2.0582.1287-2.0582a4.0489,4.0489,0,0,1,3.0872,1.2864c.5146.6432.3859,2.3154-.5145,3.7305l-.3859.6431c-.7718,1.2864-1.2864,1.5437-.9005.5146A5.395,5.395,0,0,0,415.6263,66.7626Z"/><path d="M311.3017,14.9219c.1286-.9005,1.415-1.2864,2.9586-.9005l.9005.2573c1.5437.3859,1.5437,1.0291,0,1.2864l-1.2864.2572C312.3308,16.2083,311.1731,15.8223,311.3017,14.9219Z"/><path d="M236.6922,27.5283c-.2573.5146-1.8009.7719-3.3446.3859L232.19,27.657c-1.5436-.3859-1.5436-.7719.1287-.9005l2.1868-.1286C235.92,26.4992,236.95,26.8851,236.6922,27.5283Z"/><path d="M176.6187,52.9984c.2573-.7718-.7718-1.1577-2.3155-.9l-2.7014.5145c-1.5436.2573-1.5436.7718,0,1.0291l1.6723.2573C174.8178,54.1562,176.3614,53.77,176.6187,52.9984Z"/><path d="M181.25,77.3109c-.5145-.5146-.5145-2.3155-.1286-3.7305l.6432-2.3154c.3859-1.5437.7718-1.4151.6432.1286l-.2573,4.245C182.15,77.0536,181.6355,77.8254,181.25,77.3109Z" fill="#212428"/><path d="M238.879,84.9005c-.5145-.2573-.5145-1.6723,0-3.0873s.9005-1.2864.9005.3859v.5145C239.78,84.1286,239.3936,85.1577,238.879,84.9005Z" fill="#212428"/><path d="M290.8484,50.1685c0-1.0291.3859-.6432.9.7718l.3859,1.1577c.5145,1.415.5145,2.0582-.1287,1.2864A6.9234,6.9234,0,0,1,290.8484,50.1685Z" fill="#212428"/><path d="M579.7673,77.6968c.5145-.3859.6431-2.0582.2572-3.6018l-.7717-2.5728c-.3859-1.5436-.7718-1.415-.7718.1287l.1286,3.9877C578.7381,77.3109,579.2527,78.2113,579.7673,77.6968Z" fill="#212428"/><path d="M655.92,77.3109c.7718-.3859.9-1.93.2573-3.3446L653.09,67.1486c-.6432-1.4151-.9-1.2864-.6432.2572l1.5437,7.9756C654.12,76.7963,655.1485,77.6968,655.92,77.3109Z" fill="#212428"/><path d="M659.1363,49.0107c-.2573-.6432-1.1578,0-1.801,1.415l-3.2159,6.6891c-.6432,1.4151-.5146,1.5437.3859.2573l3.6018-4.8882C659.0076,51.1975,659.3935,49.6539,659.1363,49.0107Z" fill="#212428"/><path d="M609.611,17.4946l.1286-3.8591c0-1.5436.3859-1.6723.7718-.1286l1.1577,4.3736"/><path d="M170.1868,78.8545c-1.415-.3859-1.415-.6432.2573-.6432h.1287c1.5436.1287,3.8591.3859,5.1454.5146s1.1578.5145-.2572.5145A10.6494,10.6494,0,0,1,170.1868,78.8545Z" fill="#525155"/><path d="M243.1241,70.6217c-1.1578-1.1577-1.2864-1.029-.3859.2573l1.2863,1.8009a16.1326,16.1326,0,0,0,3.216,3.3446c.9.5145.9.1287-.1287-1.0291-.9-1.1577-2.7014-2.9586-3.73-4.1164Z" fill="#525155"/><path d="M272.9678,67.5345c-.3859,0-.1286,1.029.5146,2.4441.6432,1.2863.9005,1.2863.6432,0C273.8683,68.5635,273.3538,67.5345,272.9678,67.5345Z" fill="#525155"/><path d="M315.4181,82.1991c-1.2864-.1287-1.0291-.5146.5145-.7719l1.93-.3859c1.5436-.2572,2.1868-.1286,1.2863.3859A5.7608,5.7608,0,0,1,315.4181,82.1991Z" fill="#525155"/><path d="M345.0046,69.85c-.5146-.7718-.7718-.2573-.5146,1.1577a23.3661,23.3661,0,0,0,1.801,5.0169c.6431,1.2863,1.029,1.029.6431-.5146l-.2572-1.415A12.7352,12.7352,0,0,0,345.0046,69.85Z" fill="#525155"/><path d="M443.026,72.4226c-.1286-.9-.6431-.7718-1.029.3859a18.75,18.75,0,0,0-.6432,4.8882c0,1.5437.3859,1.5437.9,0l.2573-.7718A9.7033,9.7033,0,0,0,443.026,72.4226Z" fill="#525155"/><path d="M410.3522,66.1194c-.3859-1.029-1.029-.7718-1.6722.3859a2.66,2.66,0,0,0,1.5436,3.3446l.2573.1287c1.415.6431,2.0582.5145,1.5437-.3859C411.51,68.5635,410.7381,67.02,410.3522,66.1194Z" fill="#525155"/><path d="M465.1516,82.7136c-1.415-.3859-1.415-.6432.2573-.6432h.7718a20.7041,20.7041,0,0,1,5.5314.9c1.415.5145,1.415.7718-.2573.7718h-.7718C469.1393,83.4854,466.6953,83.1,465.1516,82.7136Z" fill="#525155"/><path d="M502.1991,69.85c-.1287-.5145-.6432,0-1.0291,1.1577s-.3859,1.6723.2573,1.0291A2.88,2.88,0,0,0,502.1991,69.85Z" fill="#525155"/><path d="M537.8315,68.6922c-.1286-.5146-.6432,0-1.0291,1.1577s-.3859,1.6723.2573,1.0291A3.2508,3.2508,0,0,0,537.8315,68.6922Z" fill="#525155"/><path d="M532.0429,79.369c-1.5437-.2573-1.5437-.6431,0-.7718l1.4149-.1286a8.9879,8.9879,0,0,1,4.3737.6431c.7718.5146.5146.9005-.5146.9005a37.28,37.28,0,0,1-4.8881-.5145Z" fill="#525155"/><path d="M584.3982,79.24c-1.415.1287-1.415-.1286,0-.5145a19.7155,19.7155,0,0,1,5.5313-.5145l2.3155.2572q2.3154.1931,0,.3859l-2.3155.1287C588.3859,78.9831,585.9418,79.1118,584.3982,79.24Z" fill="#525155"/><path d="M618.23,42.0643c-.7718.2573-1.93,1.8009-2.4442,3.2159l-.1286.2573c-.6431,1.415-.2572,1.6723.6432.3859l1.6723-2.1868C618.8729,42.45,619.0016,41.6784,618.23,42.0643Z" fill="#212428"/><path d="M675.4732,16.7228c-.6432,0-1.415-1.2864-1.5437-2.83l-.1286-1.415c-.1286-1.5437.2573-1.6723.9005-.2573l.9,1.93C676.245,15.5651,676.245,16.7228,675.4732,16.7228Z"/><path d="M457.562,23.2833c0-.7718,1.1577-1.415,2.7014-1.415h1.1577c1.5437,0,1.6723.6432.2573,1.1577l-1.415.6432C458.8484,24.3124,457.6907,24.1838,457.562,23.2833Z"/><path d="M376.5207,26.3706c-.6432-.2573-1.0291.6432-.7719,2.3155l.1287,1.5436c.2573,1.5436.6432,1.5436,1.0291,0l.1286-.3859C377.4211,28.1715,377.1639,26.6279,376.5207,26.3706Z"/><path d="M303.9694,48.7534c-.1287-.6431.9-1.1577,2.5727-1.1577h6.56c1.5437,0,1.5437.2573,0,.5146l-5.9173,1.1577C305.6416,49.6539,304.2267,49.3966,303.9694,48.7534Z"/><path d="M175.2037,61.4885c.1286-.5145-1.1578-.9005-2.7014-.9005H170.83c-1.5436,0-1.6723.2573-.1286.6432l1.5436.3859C173.7887,62.003,175.2037,62.003,175.2037,61.4885Z"/><path d="M152.1777,66.7626c-1.5437,0-2.5728.2573-2.3155.6432a8.246,8.246,0,0,0,3.4732.5145h12.2205c1.5436,0,3.0873-.2572,3.4732-.6431.2573-.3859-.7718-.6432-2.3155-.6432Z" fill="#d8d4ce"/><path d="M206.8484,66.7626c-1.5437,0-2.5727.2573-2.3155.6432a8.247,8.247,0,0,0,3.4733.5145h12.22c1.5436,0,3.0873-.2572,3.4732-.6431.2573-.3859-.7718-.6432-2.3155-.6432Z" fill="#d8d4ce"/><path d="M237.5926,66.5053c-1.5436,0-2.83.3859-2.7013.6432s1.5436.5146,3.0872.5146h.3859c1.5437,0,2.9587-.2573,3.0873-.6432s-1.0291-.6432-2.7014-.6432Z" fill="#d8d4ce"/><path d="M182.7933,39.7488c-1.5437,0-2.83.386-2.7014.6432s1.5436.5146,3.0873.5146h.3859c1.5436,0,2.9586-.2573,3.0873-.6432s-1.0291-.6432-2.7014-.6432Z" fill="#d8d4ce"/><path d="M205.4334,39.7488c-1.5437,0-2.83.386-2.7014.6432s1.5437.5146,3.0873.5146h.3859c1.5436,0,2.9586-.2573,3.0873-.6432s-1.0291-.6432-2.7014-.6432Z" fill="#d8d4ce"/><path d="M160.1531,43.3507c-1.5436,0-2.83.3859-2.7013.6432s1.415.5145,2.9586.5145,2.83-.2573,2.9587-.6432-1.1578-.6432-2.7014-.6432Z" fill="#d8d4ce"/><path d="M187.2956,52.6125c-1.5437,0-2.7014.2573-2.4441.6432a7.2117,7.2117,0,0,0,3.2159.5146h5.66c1.5437,0,2.9587-.2573,3.216-.6432s-.9-.6432-2.4441-.6432Z" fill="#d8d4ce"/><path d="M174.8178,13.121c-1.5437,0-2.7014.2572-2.4441.6432a7.214,7.214,0,0,0,3.2159.5145h5.66c1.5437,0,2.9587-.2573,3.216-.6432s-.9-.6432-2.4441-.6432Z" fill="#d8d4ce"/><path d="M269.1087,66.5053c-1.5436,0-2.83.3859-2.7014.6432s1.5437.5146,3.0873.5146h.3859c1.5437,0,2.9587-.2573,3.0873-.6432s-1.0291-.6432-2.7014-.6432Z" fill="#d8d4ce"/><path d="M322.879,66.5053c-1.5436,0-2.83.3859-2.7013.6432s1.415.5146,2.9586.5146,2.83-.2573,2.9586-.6432-1.1577-.6432-2.7014-.6432Z" fill="#d8d4ce"/><path d="M279.1424,66.5053c-1.5436,0-2.7013.2573-2.5727.6432.1286.2573,1.5437.5146,3.2159.5146h4.245c1.5437,0,2.9587-.2573,3.216-.6432.1286-.3859-1.0291-.6432-2.5728-.6432Z" fill="#d8d4ce"/><path d="M307.7,66.634c-1.5436,0-2.7013.2573-2.4441.6432a7.2127,7.2127,0,0,0,3.216.5145h5.2741c1.5437,0,2.9586-.2573,3.2159-.6432s-.9-.6432-2.4441-.6432Z" fill="#d8d4ce"/><path d="M339.0873,66.5053c-1.5437,0-2.7014.3859-2.5728.6432s1.5437.5146,3.0873.5146h2.4441c1.5437,0,2.9586-.2573,3.0873-.6432s-1.0291-.6432-2.5727-.6432Z" fill="#d8d4ce"/><path d="M401.6049,66.5053c-1.5437,0-2.7014.3859-2.5727.6432s1.5436.5146,3.0872.5146h2.4441c1.5437,0,2.9587-.2573,3.0873-.6432s-1.0291-.6432-2.5727-.6432Z" fill="#d8d4ce"/><path d="M445.9847,66.5053c-1.5437,0-2.7014.3859-2.5728.6432s1.5437.5146,3.0873.5146h1.5437c1.5436,0,2.9586-.2573,3.0873-.6432s-1.0291-.6432-2.5728-.6432Z" fill="#d8d4ce"/><path d="M468.11,66.634c-1.5437,0-2.5728.2573-2.3155.6432a7.9491,7.9491,0,0,0,3.3446.5145h9.9051c1.5436,0,3.0872-.2573,3.3445-.6432s-.7718-.6432-2.3154-.6432Z" fill="#d8d4ce"/><path d="M495.51,66.5053c-1.5436,0-2.7013.3859-2.7013.6432.1286.2573,1.5436.5146,3.0872.5146h.6432c1.5437,0,2.9587-.2573,3.0873-.6432s-1.0291-.6432-2.7014-.6432Z" fill="#d8d4ce"/><path d="M505.2864,66.5053c-1.5437,0-2.7014.2573-2.5728.6432.1287.2573,1.6723.5146,3.216.5146h4.3736c1.5437,0,2.9586-.2573,3.2159-.6432.1287-.3859-.9-.6432-2.5727-.6432Z" fill="#d8d4ce"/><path d="M527.1547,66.5053c-1.5437,0-2.7014.3859-2.5728.6432s1.5437.5146,3.0873.5146h2.83c1.5436,0,2.9586-.2573,3.0873-.6432s-1.0291-.6432-2.5727-.6432Z" fill="#d8d4ce"/><path d="M540.147,66.5053c-1.5437,0-2.7014.3859-2.5728.6432s1.5437.5146,3.0874.5146h1.2863c1.5437,0,2.9587-.2573,3.0873-.6432s-1.029-.6432-2.5727-.6432Z" fill="#d8d4ce"/><path d="M558.4135,66.634c-1.5437,0-2.5728.2573-2.1869.6432a9.2346,9.2346,0,0,0,3.4732.5145h13.5069c1.5437,0,3.0873-.2573,3.4732-.6432s-.6432-.6432-2.1868-.6432Z" fill="#d8d4ce"/><path d="M589.5436,66.634c-1.5436,0-2.5727.2573-2.1868.6432a9.2342,9.2342,0,0,0,3.4732.5145h13.5069c1.5437,0,3.0873-.2573,3.4732-.6432s-.6432-.6432-2.1868-.6432Z" fill="#d8d4ce"/><path d="M668.27,66.634c-1.5436,0-2.5727.2573-2.1868.6432a9.2342,9.2342,0,0,0,3.4732.5145h13.5069c1.5437,0,3.0873-.2573,3.4732-.6432s-.6432-.6432-2.1868-.6432Z" fill="#d8d4ce"/><path d="M639.4548,14.15c-1.5437,0-2.7013.2572-2.5727.6432.1286.2572,1.6722.5145,3.2159.5145h5.1455c1.5436,0,2.9586-.2573,3.2159-.6432.1286-.3859-.9-.6432-2.5727-.6432Z" fill="#d8d4ce"/><path d="M614.8852,14.15c-1.5437,0-2.7014.2572-2.4442.6432a7.214,7.214,0,0,0,3.2159.5145h6.6892c1.5436,0,3.0873-.2573,3.2159-.6432.2573-.3859-.9-.6432-2.4441-.6432Z" fill="#d8d4ce"/><path d="M602.4073,14.15c-1.5436,0-2.7013.3859-2.5727.6432s1.5437.5145,3.0873.5145h2.9587c1.5436,0,2.9586-.2573,3.0873-.6432s-1.0291-.6432-2.5728-.6432Z" fill="#d8d4ce"/><path d="M606.5237,39.62c-1.5436,0-2.7013.2573-2.4441.6432a7.2125,7.2125,0,0,0,3.2159.5145h5.4028c1.5437,0,2.9586-.2572,3.2159-.6432s-.9-.6431-2.4441-.6431Z" fill="#d8d4ce"/><path d="M530.6279,12.4778c-1.5437,0-2.7014.3859-2.5728.6432s1.5437.5145,3.0874.5145h2.9586c1.5437,0,2.9586-.2573,3.0873-.6432s-1.0291-.6432-2.5727-.6432Z" fill="#d8d4ce"/><path d="M548.2512,12.4778c-1.5437,0-2.7014.3859-2.5728.6432s1.5437.5145,3.0874.5145h2.9586c1.5437,0,2.9586-.2573,3.0873-.6432s-1.0291-.6432-2.5727-.6432Z" fill="#d8d4ce"/><path d="M537.06,23.6692c-1.2863,0-2.3154.3859-2.3154.6432.1286.2573,1.0291.5145,2.3154.5145s2.1869-.2572,2.3155-.6431C539.3752,23.7979,538.3461,23.5406,537.06,23.6692Z" fill="#d8d4ce"/><path d="M543.2343,19.9387c-1.5437,0-2.83.386-2.7013.6432s1.4149.5146,2.83.5146,2.7013-.2573,2.83-.6432-1.1578-.6432-2.7013-.6432Z" fill="#d8d4ce"/><path d="M464.7657,20.7106c-1.5437,0-2.83.3859-2.7014.6431s1.415.5146,2.83.5146,2.7014-.2573,2.83-.6432-1.1578-.6432-2.7014-.6432Z" fill="#d8d4ce"/><path d="M484.4471,38.977c-1.5436,0-2.7013.3859-2.7013.6432.1286.2573,1.5436.5145,3.0872.5145h.7719c1.5436,0,2.9586-.2572,3.0873-.6431s-1.0291-.6432-2.7014-.6432Z" fill="#d8d4ce"/><path d="M470.5544,45.6662c-1.5437,0-2.7014.2572-2.5728.6431.1287.2573,1.5437.5146,3.2159.5146h4.2451c1.5436,0,2.9586-.2573,3.2159-.6432.1286-.3859-1.0291-.6432-2.5728-.6432Z" fill="#d8d4ce"/><path d="M666.34,47.0812c-1.5437,0-2.7014.2572-2.5728.6431.1286.2573,1.5437.5146,3.216.5146h4.245c1.5436,0,2.9586-.2573,3.2159-.6432.1286-.3859-1.0291-.6432-2.5727-.6432Z" fill="#d8d4ce"/><path d="M340.6309,52.2267c-1.5436,0-2.7014.3858-2.5727.6431s1.5437.5146,3.0873.5146h1.8009c1.5436,0,2.9586-.2573,3.0873-.6432s-1.0291-.6432-2.5728-.6432Z" fill="#d8d4ce"/><path d="M312.974,46.6952c-1.5437,0-2.7014.386-2.5728.6432s1.5437.5146,3.0873.5146h1.8009c1.5437,0,2.9587-.2573,3.0873-.6432s-1.0291-.6432-2.5727-.6432Z" fill="#d8d4ce"/><path d="M273.611,46.1807c-1.5436,0-2.7014.3859-2.5727.6432s1.5436.5145,3.0873.5145h1.8009c1.5436,0,2.9586-.2572,3.0873-.6432s-1.0291-.6431-2.5728-.6431Z" fill="#d8d4ce"/><path d="M213.9234,25.0842c-1.5436,0-2.7013.2573-2.5727.6432a6.2538,6.2538,0,0,0,3.2159.6432h4.5023c1.5437,0,2.9587-.2573,3.2159-.6432.1287-.3859-.9-.6432-2.5727-.6432Z" fill="#d8d4ce"/><path d="M325.8377,15.0505c-1.5437-.1286-2.83,0-2.7014.2573.1286.3859,1.415.7718,2.9586,1.0291l1.8009.2573c1.5437.2572,2.9587.1286,3.216-.2573.1286-.3859-.9005-.7718-2.4441-.9Z" fill="#d8d4ce"/><path d="M495.6386,49.9112c-1.5437,0-2.7014.3859-2.5728.6431s1.5437.5146,3.0873.5146h1.8009c1.5437,0,2.9587-.2573,3.0873-.6432s-1.0291-.6432-2.5727-.6432Z" fill="#d8d4ce"/><path d="M545.4211,45.1516c-1.5436,0-2.7013.3859-2.5727.6432s1.5437.5145,3.0873.5145h1.801c1.5436,0,2.9586-.2572,3.0873-.6432s-1.0291-.6432-2.5727-.6432Z" fill="#d8d4ce"/><path d="M425.7887,13.6355c-1.5437,0-2.5728.2573-2.0582.6432a10.0809,10.0809,0,0,0,3.6018.5145h17.7519c1.5437,0,3.2159-.2572,3.6018-.6431s-.5145-.6432-2.0582-.6432Z" fill="#d8d4ce"/><path d="M366.487,13.8928c-1.5437,0-2.4441.2573-2.0582.6432a10.0832,10.0832,0,0,0,3.6018.5145h18.5237c1.5437,0,3.216-.2573,3.6019-.6432s-.5146-.6432-2.0582-.6432Z" fill="#d8d4ce"/><path d="M363.4,39.1057c-1.5436,0-2.7014.2572-2.4441.6431a7.4976,7.4976,0,0,0,3.3446.5146h7.4609c1.5437,0,3.0873-.2573,3.3446-.6432s-.9005-.6432-2.4441-.6432Z" fill="#d8d4ce"/><path d="M379.2221,39.1057c-1.5437,0-2.7014.2572-2.4441.6431a7.2113,7.2113,0,0,0,3.2159.5146h6.6891c1.5437,0,3.0873-.2573,3.216-.6432.2572-.3859-.9005-.6432-2.4441-.6432Z" fill="#d8d4ce"/><path d="M413.3109,63.2894c-1.5437,0-2.83.3859-2.7014.6432s1.415.5145,3.0873.5145h.2573c1.5436,0,2.9586-.2573,3.0872-.6432s-1.029-.6431-2.7013-.6431Z" fill="#d8d4ce"/><path d="M408.68,22.64c-1.5436-.1286-2.7014,0-2.5727.2573.1286.3859,1.415.7718,3.0873,1.0291l3.2159.3859c1.5437.2573,2.9586.1286,3.2159-.2573s-.9005-.7718-2.4441-1.0291Z" fill="#d8d4ce"/><path d="M557.3844,50.04c-1.5437-.1286-2.7014,0-2.5728.2573.1286.3859,1.415.7718,3.0874,1.0291l3.2159.3859c1.5436.2573,2.9586.1286,3.2159-.2573s-.9-.7718-2.4441-1.0291Z" fill="#d8d4ce"/><path d="M552.11,23.6692c-1.1578,0-2.1869.3859-2.0582.6432a3.0451,3.0451,0,0,0,2.0582.5145c1.0291,0,2.0581-.2572,2.0581-.6431C554.2971,23.7979,553.268,23.5406,552.11,23.6692Z" fill="#d8d4ce"/><path d="M622.2175,39.62c-1.5437,0-2.7014.2573-2.4442.6432a7.2127,7.2127,0,0,0,3.216.5145h6.6891c1.5437,0,3.0873-.2572,3.2159-.6432.2573-.3859-.9-.6431-2.4441-.6431Z" fill="#d8d4ce"/><path d="M679.3323,14.15c-1.5437,0-2.7014.3859-2.5728.6432s1.5437.5145,3.0874.5145h3.2159c1.5437,0,2.9586-.2573,3.0873-.6432s-1.0291-.6432-2.5727-.6432Z" fill="#d8d4ce"/><path d="M423.3445,66.634c-1.5436,0-2.5727.2573-2.3154.6432a7.9491,7.9491,0,0,0,3.3446.5145h11.32c1.5437,0,3.0873-.2573,3.3446-.6432s-.7718-.6432-2.3155-.6432Z" fill="#d8d4ce"/><path d="M350.6646,66.634c-1.5436,0-2.5727.2573-2.1868.6432a10.0809,10.0809,0,0,0,3.6018.5145h16.7228c1.5437,0,3.2159-.2573,3.6018-.6432s-.5145-.6432-2.1868-.6432Z" fill="#d8d4ce"/><path d="M377.6784,66.634c-1.5437,0-2.7014.2573-2.4441.6432a7.2125,7.2125,0,0,0,3.2159.5145h6.56c1.5437,0,3.0873-.2573,3.2159-.6432.2573-.3859-.9-.6432-2.444-.6432Z" fill="#d8d4ce"/><path d="M249.2986,66.7626c-1.5436,0-2.7014.3859-2.5727.6432s1.5436.5145,3.0873.5145h2.83c1.5437,0,2.9586-.2572,3.0873-.6431s-1.0291-.6432-2.5728-.6432Z" fill="#d8d4ce"/><path d="M506.83,26.3706c-1.5436,0-2.83.2573-2.7014.5145s1.4151.5146,3.0873.5146h.1287c1.5436,0,2.9586-.2573,3.0872-.5146s-1.1577-.5145-2.7013-.5145Z" fill="#d8d4ce"/><path d="M482.6462,13.6355c-1.5436,0-2.7013.3859-2.5727.6432s1.5437.5145,3.0873.5145h1.8009c1.5436,0,2.9586-.2572,3.0873-.6431s-1.0291-.6432-2.5728-.6432Z" fill="#d8d4ce"/></g><path d="M417.17,78.9831c.5145-.2572,1.2864.3859,1.6722,1.4151l.6432,1.8009c.3859,1.0291.1287,1.1577-.6432.3859l-1.415-1.6723C416.6554,80.1409,416.6554,79.24,417.17,78.9831Z" fill="#2d000e"/><path d="M825.0781,104.5819H797.55l-7.8468-20.3246H758.3154l-2.4441-6.9464H641.3843l-5.4028,17.366h-13.121l-3.6018-17.366h-31.902L585.17,86.83h-6.6892l-1.5436-9.5191H516.8635L515.5772,86.83h-7.7181l-.9005-9.5191H307.9571l-3.4732,29.9724h-3.9878l-2.3154-13.25h-8.3614l-3.216-17.366H225.1148l-8.8759,43.7366h0l-13.121-43.7366H171.6018l-2.4441,9.5191H155.3936l-3.6019-9.5191H84.2573l-2.7014,7.59H50.1685l-7.8469,20.3246H14.7933L0,140.343l26.1133,41.9357h5.66l13.6356,22.1256H71.3936l3.73,6.56h69.0781l2.7014-10.1623h26.242l4.1163,10.1623h61.7458l1.8009-10.1623h6.56l2.83,10.1623h32.6738l6.56-49.9112h3.2159l2.5727,13.5069h2.9587l6.9464,37.0475h204.147l1.5436-10.9342h7.8469l1.0291,10.9342h61.4885l2.9587-10.9342h6.3032l1.801,10.9342h32.4165l12.2205-36.2757h2.9587l7.7182,36.2757H765.0046l4.245-7.3324h25.3415L808.2266,182.15h5.66L840,140.2144Z" fill="#0b0000"/><g style="isolation: isolate"><polygon points="777.482 97.378 757.544 136.741 743.394 136.741 762.56 97.378 777.482 97.378" fill="url(#j)"/><polygon points="813.115 118.089 790.732 157.194 764.49 157.194 785.201 118.089 813.115 118.089" fill="url(#k)"/><polygon points="835.498 139.7 811.443 178.291 784.557 178.291 807.069 139.7 835.498 139.7" fill="url(#l)"/><polygon points="815.688 162.34 792.276 200.417 763.975 200.417 785.587 162.34 815.688 162.34" fill="url(#m)"/></g><g style="isolation: isolate"><polygon points="759.859 99.951 740.949 139.314 689.109 139.314 705.06 99.951 759.859 99.951" fill="url(#n)"/><polygon points="744.423 134.04 725.642 172.76 672.257 172.76 687.694 134.04 744.423 134.04" fill="url(#o)"/><polygon points="784.429 169.801 762.689 207.749 680.619 207.749 697.213 169.801 784.429 169.801" fill="url(#p)"/></g><g style="isolation: isolate"><polygon points="639.712 124.135 627.234 163.24 613.599 163.24 625.176 124.135 639.712 124.135" fill="url(#q)"/><polygon points="658.879 132.882 645.372 171.73 631.479 171.73 644.343 132.882 658.879 132.882" fill="url(#r)"/><polygon points="693.354 169.801 677.145 207.749 650.389 207.749 664.925 169.801 693.354 169.801" fill="url(#s)"/><polygon points="634.567 169.801 621.832 207.749 595.075 207.749 606.138 169.801 634.567 169.801" fill="url(#t)"/></g><g style="isolation: isolate"><polygon points="563.559 99.951 555.583 139.314 528.827 139.314 535.259 99.951 563.559 99.951" fill="url(#u)"/><polygon points="600.349 158.609 589.801 196.815 576.551 196.815 586.328 158.609 600.349 158.609" fill="url(#v)"/><polygon points="528.184 158.609 521.752 196.815 508.502 196.815 514.162 158.609 528.184 158.609" fill="url(#w)"/><polygon points="588.129 169.801 578.095 207.749 522.781 207.749 529.342 169.801 588.129 169.801" fill="url(#x)"/></g><g style="isolation: isolate"><polygon points="505.158 99.951 500.398 139.314 448.686 139.314 450.358 99.951 505.158 99.951" fill="url(#y)"/><polygon points="508.116 133.268 503.1 172.116 449.587 172.116 451.387 133.268 508.116 133.268" fill="url(#z)"/><polygon points="511.332 169.801 505.93 207.749 423.859 207.749 424.116 169.801 511.332 169.801" fill="url(#aa)"/></g><g style="isolation: isolate"><polygon points="76.925 97.378 93.905 134.812 81.813 136.87 62.003 97.378 76.925 97.378" fill="url(#ab)"/><polygon points="54.285 118.217 71.522 151.149 45.152 151.149 26.371 118.217 54.285 118.217" fill="url(#ac)"/><polygon points="32.417 139.828 54.928 178.42 28.043 178.42 3.859 139.828 32.417 139.828" fill="url(#ad)"/><polygon points="53.899 162.34 75.51 200.545 47.21 200.545 23.798 162.34 53.899 162.34" fill="url(#ae)"/></g><g style="isolation: isolate"><polygon points="139.185 99.179 154.879 138.671 124.006 138.671 106.511 99.179 139.185 99.179" fill="url(#af)"/><polygon points="150.119 158.609 166.07 196.815 143.945 196.815 126.708 158.609 150.119 158.609" fill="url(#ag)"/><polygon points="123.749 169.029 141.372 206.977 77.182 206.977 55.571 169.029 123.749 169.029" fill="url(#ah)"/></g><g style="isolation: isolate"><polygon points="240.165 158.609 250.842 196.815 237.593 196.815 226.144 158.609 240.165 158.609" fill="url(#ai)"/><polygon points="167.1 158.609 182.021 196.815 169.544 196.815 153.979 158.609 167.1 158.609" fill="url(#aj)"/><polygon points="224.214 169.029 235.792 206.977 179.706 206.977 164.527 169.029 224.214 169.029" fill="url(#ak)"/></g><g style="isolation: isolate"><polygon points="292.392 124.135 300.11 163.626 286.475 163.626 277.727 124.135 292.392 124.135" fill="url(#al)"/><polygon points="304.741 137.642 311.044 174.56 297.28 174.56 290.077 137.642 304.741 137.642" fill="url(#am)"/><polygon points="270.652 168.9 279.528 206.848 252.772 206.848 242.224 168.9 270.652 168.9" fill="url(#an)"/><polygon points="329.311 169.801 334.714 207.749 307.957 207.749 300.882 169.801 329.311 169.801" fill="url(#ao)"/></g><g style="isolation: isolate"><polygon points="420.257 99.951 420.257 139.314 368.417 139.314 365.458 99.951 420.257 99.951" fill="url(#ap)"/><polygon points="392.858 133.268 394.401 172.116 375.492 172.116 372.662 133.268 392.858 133.268" fill="url(#aq)"/><polygon points="420.257 169.801 420.257 207.749 338.187 207.749 333.041 169.801 420.257 169.801" fill="url(#ar)"/></g><polygon points="794.848 107.926 822.505 107.926 835.498 139.7 806.94 139.7 815.688 162.34 785.587 162.34 781.599 151.277 797.421 151.277 789.317 129.023 817.489 129.023 813.115 118.089 785.201 118.089 777.482 97.25 762.56 97.25 759.087 87.602 787.002 87.602 794.848 107.926" fill="url(#as)"/><polygon points="687.694 134.04 673.415 80.527 753.17 80.527 759.859 99.951 705.06 99.951 709.047 113.329 764.619 113.329 784.429 169.801 697.213 169.801 691.296 147.547 748.796 147.547 744.423 134.04 687.694 134.04" fill="url(#at)"/><polygon points="651.161 111.271 643.957 80.655 669.942 80.655 693.354 169.801 664.925 169.801 657.335 137.77 642.671 137.77 639.712 124.135 625.176 124.135 634.567 169.801 606.138 169.801 590.187 80.655 616.172 80.655 619.773 98.021 633.923 98.021 636.882 111.271 651.161 111.271" fill="url(#au)"/><path d="M573.7213,80.5268l1.5437,9.5191h13.121l11.9632,68.435H586.3277l1.801,11.1914H529.3415l-1.1578-11.1914H514.1623l-6.3032-68.435H520.98l-1.0291-9.5191Zm-3.0873,67.02L563.5589,99.951h-28.3l5.66,47.5957H570.634" fill="url(#av)"/><polygon points="424.116 169.801 423.73 80.527 503.485 80.527 505.158 99.951 450.358 99.951 450.744 112.557 506.315 112.557 508.116 133.268 451.387 133.268 451.902 147.547 509.403 147.547 511.332 169.801 424.116 169.801" fill="url(#aw)"/><path d="M149.09,80.0122l-2.7014,9.5192h21.8683L150.1194,158.61H126.7075l-2.9586,10.42H55.5712L86.83,80.0122Zm-23.9265,67.5345,14.0214-48.3676H106.5115L90.8178,147.5467h34.3461" fill="url(#ax)"/><polygon points="214.438 146.903 227.945 80.012 253.93 80.012 240.165 158.609 226.144 158.609 224.214 169.029 164.527 169.029 167.1 158.609 153.979 158.609 174.303 80.012 200.288 80.012 184.723 146.903 214.438 146.903" fill="url(#ay)"/><polygon points="307.571 110.628 311.044 80.527 337.029 80.527 329.311 169.801 300.882 169.801 304.613 137.77 290.077 137.77 292.392 124.135 277.727 124.135 270.652 169.029 242.224 169.029 257.403 80.012 283.387 80.012 280.943 97.25 295.093 97.25 293.293 110.628 307.571 110.628" fill="url(#az)"/><polygon points="333.041 169.801 340.502 80.527 420.257 80.527 420.257 99.951 365.458 99.951 362.757 147.547 392.472 147.547 392.858 133.268 372.662 133.268 373.691 112.557 420.257 112.557 420.257 169.801 333.041 169.801" fill="url(#ba)"/><path d="M302.94,168.6432c-1.0291,0-1.5437.2573-1.1577.6432a7.1768,7.1768,0,0,0,2.7014.5145h21.74a4.9014,4.9014,0,0,0,2.7014-.6432c.3859-.3859,0-.6432-1.1577-.6432Z" fill="#f8eb48"/><path d="M607.81,168.6432c-1.0291,0-1.5436.2573-1.1577.6432a7.1766,7.1766,0,0,0,2.7013.5145h21.74a4.901,4.901,0,0,0,2.7013-.6432c.3859-.3859,0-.6432-1.1577-.6432Z" fill="#ffdc38"/><path d="M666.9832,168.6432c-1.0291,0-1.5437.2573-1.1578.6432a7.1775,7.1775,0,0,0,2.7013.5145h21.74a4.9014,4.9014,0,0,0,2.7014-.6432c.3859-.3859,0-.6432-1.1578-.6432Z" fill="#f8eb48"/><path d="M335.2282,168.6432c-1.0291,0-1.0291.2573,0,.5145l.6431.1287a18.5928,18.5928,0,0,0,3.7305.5145h64.9617a18.6,18.6,0,0,0,3.7305-.5145l.7718-.2573c1.0291-.2573,1.0291-.5146-.1286-.5146Z" fill="#f8eb48"/><path d="M348.3492,168.6432c-1.0291,0-1.0291.2573-.1287.5145l.5146.1287a18.5908,18.5908,0,0,0,3.73.5145h61.2313a12.63,12.63,0,0,0,3.73-.6432l.5146-.1286c1.0291-.3859.9-.6432-.1287-.6432Z" fill="#f8eb48"/><path d="M426.0459,168.6432c-1.029,0-1.029.2573,0,.5145l.6432.1287a18.5928,18.5928,0,0,0,3.7305.5145h64.9617a18.6,18.6,0,0,0,3.7305-.5145l.7718-.2573c1.0291-.2573,1.0291-.5146-.1287-.5146Z" fill="#f8eb48"/><path d="M439.1669,168.6432c-1.0291,0-1.0291.2573-.1286.5145l.5145.1287a18.5928,18.5928,0,0,0,3.7305.5145h61.2312a12.63,12.63,0,0,0,3.7305-.6432l.5145-.1286c1.0291-.3859.9005-.6432-.1286-.6432Z" fill="#f8eb48"/><path d="M531.1424,168.6432c-1.0291,0-1.1578.2573-.2573.6432a16.2147,16.2147,0,0,0,3.6018.5145h48.3675a11.16,11.16,0,0,0,3.6018-.6432c.9005-.3859.7718-.6432-.2573-.6432Z" fill="#f8eb48"/><polygon points="44.637 108.055 52.484 87.73 80.398 87.73 76.925 97.378 62.003 97.378 54.285 118.089 26.371 118.089 21.997 129.152 50.168 129.152 41.936 151.277 57.758 151.277 53.899 162.34 23.798 162.34 32.417 139.828 3.859 139.828 16.98 108.055 44.637 108.055" fill="url(#bb)"/><g opacity="0.41"><g style="isolation: isolate"><polygon points="164.527 169.029 164.527 169.029 167.1 158.609 167.1 158.609 164.527 169.029" fill="#828282"/><polygon points="42.193 151.277 58.015 151.277 58.015 151.277 42.193 151.277" fill="#a7a7a7"/><polygon points="362.757 147.547 392.472 147.547 392.472 147.547 362.757 147.547" fill="#a7a7a7"/><polygon points="90.946 147.547 125.292 147.547 125.292 147.547 90.946 147.547" fill="#a7a7a7"/><polygon points="184.723 146.903 214.438 146.903 214.438 146.903 184.723 146.903" fill="#a7a7a7"/><polygon points="24.055 162.34 24.055 162.34 32.674 139.7 32.674 139.7 24.055 162.34" fill="#858585"/><polygon points="392.472 147.547 392.472 147.547 392.858 133.268 392.858 133.268 392.472 147.547" fill="gray"/><polygon points="22.126 129.152 50.426 129.152 50.426 129.152 22.126 129.152" fill="#a7a7a7"/><polygon points="373.691 112.686 420.257 112.686 420.257 112.686 373.691 112.686" fill="#a7a7a7"/><polygon points="372.79 133.268 372.79 133.268 373.691 112.686 373.691 112.686 372.79 133.268" fill="gray"/><polygon points="293.293 110.628 307.571 110.628 307.571 110.628 293.293 110.628" fill="#a7a7a7"/><polygon points="4.116 139.7 4.116 139.7 17.237 107.926 17.237 107.926 4.116 139.7" fill="#858585"/><polygon points="17.237 107.926 44.894 107.926 44.894 107.926 17.237 107.926" fill="#a7a7a7"/><polygon points="125.164 147.547 125.164 147.547 139.185 99.308 139.185 99.308 125.164 147.547" fill="#838383"/><polygon points="280.943 97.378 295.093 97.378 295.093 97.378 280.943 97.378" fill="#a7a7a7"/><polygon points="146.389 89.531 168.257 89.531 168.257 89.531 146.389 89.531" fill="#a7a7a7"/><polygon points="333.041 169.801 333.041 169.801 340.502 80.655 340.502 80.655 333.041 169.801" fill="gray"/><polygon points="340.502 80.655 420.257 80.655 420.257 80.655 340.502 80.655" fill="#a7a7a7"/><polygon points="311.044 80.655 337.029 80.655 337.029 80.655 311.044 80.655" fill="#a7a7a7"/><polygon points="307.571 110.628 307.571 110.628 311.044 80.655 311.044 80.655 307.571 110.628" fill="gray"/><polygon points="257.403 80.012 283.387 80.012 283.387 80.012 257.403 80.012" fill="#a7a7a7"/><polygon points="242.224 169.029 242.224 169.029 257.403 80.012 257.403 80.012 242.224 169.029" fill="#818181"/><polygon points="174.303 80.012 200.288 80.012 200.288 80.012 174.303 80.012" fill="#a7a7a7"/><polygon points="153.979 158.609 153.979 158.609 174.303 80.012 174.303 80.012 153.979 158.609" fill="#828282"/><polygon points="227.945 80.012 253.93 80.012 253.93 80.012 227.945 80.012" fill="#a7a7a7"/><polygon points="214.438 146.903 214.438 146.903 227.945 80.012 227.945 80.012 214.438 146.903" fill="#818181"/><polygon points="86.83 80.012 149.219 80.012 149.219 80.012 86.83 80.012" fill="#a7a7a7"/><polygon points="55.571 169.029 55.571 169.029 86.83 80.012 86.83 80.012 55.571 169.029" fill="#848484"/><polygon points="326.867 167.228 329.311 169.801 300.882 169.801 303.712 167.228 326.867 167.228" fill="url(#bc)"/><polygon points="417.685 167.228 420.257 169.801 333.041 169.801 335.871 167.228 417.685 167.228" fill="url(#bd)"/><polygon points="222.028 166.456 224.214 169.029 164.527 169.029 167.743 166.456 222.028 166.456" fill="url(#be)"/><polygon points="268.337 166.456 270.652 169.029 242.224 169.029 245.182 166.456 268.337 166.456" fill="url(#bf)"/><polygon points="121.819 166.456 123.749 169.029 55.571 169.029 59.173 166.456 121.819 166.456" fill="url(#bg)"/><polygon points="170.315 156.037 167.1 158.609 153.979 158.609 157.194 156.037 170.315 156.037" fill="url(#bh)"/><polygon points="223.957 156.037 226.144 158.609 224.214 169.029 222.028 166.456 223.957 156.037" fill="#d05930"/><polygon points="167.743 166.456 164.527 169.029 167.1 158.609 170.315 156.037 167.743 166.456" fill="#cc482f"/><polygon points="238.107 156.037 240.165 158.609 226.144 158.609 223.957 156.037 238.107 156.037" fill="url(#bi)"/><polygon points="124.778 156.037 126.708 158.609 123.749 169.029 121.819 166.456 124.778 156.037" fill="#d05930"/><polygon points="148.19 156.037 150.119 158.609 126.708 158.609 124.778 156.037 148.19 156.037" fill="url(#bj)"/><polygon points="360.055 150.119 362.757 147.547 392.472 147.547 395.044 150.119 360.055 150.119" fill="#f7eb87"/><polygon points="87.345 150.119 90.946 147.547 125.164 147.547 127.222 150.119 87.345 150.119" fill="#f7eb87"/><polygon points="181.507 149.476 184.723 146.903 214.438 146.903 216.496 149.476 181.507 149.476" fill="#f7eb87"/><polygon points="395.559 130.695 392.858 133.268 372.79 133.268 375.363 130.695 395.559 130.695" fill="#691d14"/><polygon points="395.044 150.119 392.472 147.547 392.858 133.268 395.559 130.695 395.044 150.119" fill="#fcefb3"/><polygon points="303.455 167.614 300.882 169.801 304.87 137.642 307.828 135.069 303.455 167.614" fill="#cc482f"/><polygon points="307.7 135.069 304.87 137.642 290.205 137.642 293.164 135.069 307.7 135.069" fill="#691d14"/><polygon points="293.164 135.069 290.334 137.642 292.392 124.135 295.479 121.562 293.164 135.069" fill="#cc482f"/><polygon points="275.798 121.562 277.727 124.135 270.652 169.029 268.337 166.456 275.798 121.562" fill="#cc482f"/><polygon points="295.351 121.562 292.521 124.135 277.727 124.135 275.798 121.562 295.351 121.562" fill="#691d14"/><polygon points="376.135 115.259 373.691 112.686 420.257 112.686 417.685 115.259 376.135 115.259" fill="#f7eb87"/><polygon points="375.363 130.695 372.79 133.268 373.691 112.686 376.135 115.259 375.363 130.695" fill="#fcefb3"/><polygon points="417.685 115.259 420.257 112.686 420.257 169.801 417.685 167.228 417.685 115.259" fill="#d05930"/><polygon points="290.462 113.201 293.293 110.628 307.571 110.628 309.887 113.201 290.462 113.201" fill="#f7eb87"/><polygon points="277.985 99.951 280.943 97.378 295.093 97.378 292.135 99.951 277.985 99.951" fill="#f7eb87"/><polygon points="292.135 99.951 295.093 97.378 293.293 110.628 290.462 113.201 292.135 99.951" fill="#d05930"/><polygon points="363.014 97.378 365.458 99.951 362.757 147.547 360.055 150.119 363.014 97.378" fill="#d05930"/><polygon points="417.685 97.378 420.257 99.951 365.458 99.951 363.014 97.378 417.685 97.378" fill="#691d14"/><polygon points="104.582 96.735 106.511 99.308 90.946 147.547 87.345 150.119 104.582 96.735" fill="#cc482f"/><polygon points="127.222 150.119 125.164 147.547 139.185 99.308 142.659 96.735 127.222 150.119" fill="#fcefb3"/><polygon points="142.659 96.735 139.185 99.308 106.511 99.308 104.582 96.735 142.659 96.735" fill="#691d14"/><polygon points="164.913 92.104 168.257 89.531 150.119 158.609 148.19 156.037 164.913 92.104" fill="#d05930"/><polygon points="143.044 92.104 146.389 89.531 168.257 89.531 164.913 92.104 143.044 92.104" fill="#f7eb87"/><g><polygon points="52.098 159.767 53.899 162.34 23.798 162.34 27.528 159.767 52.098 159.767" fill="url(#bk)"/><polygon points="38.334 153.979 41.936 151.406 57.887 151.406 54.156 153.979 38.334 153.979" fill="#f7eb87"/><polygon points="54.156 153.979 57.887 151.406 53.899 162.34 52.098 159.767 54.156 153.979" fill="#d05930"/><polygon points="27.528 159.767 23.798 162.34 32.417 139.828 36.147 137.256 27.528 159.767" fill="#cc482f"/><polygon points="36.147 137.256 32.417 139.828 3.859 139.828 7.718 137.256 36.147 137.256" fill="url(#bl)"/><polygon points="46.438 131.724 50.168 129.152 41.936 151.406 38.334 153.979 46.438 131.724" fill="#d05930"/><polygon points="18.138 131.724 21.997 129.152 50.168 129.152 46.438 131.724 18.138 131.724" fill="#f7eb87"/><polygon points="52.484 115.645 54.285 118.217 26.371 118.217 24.57 115.645 52.484 115.645" fill="#691d14"/><polygon points="24.57 115.645 26.371 118.217 21.997 129.152 18.138 131.724 24.57 115.645" fill="#cc482f"/><polygon points="7.718 137.256 3.859 139.828 16.98 108.055 18.781 110.628 7.718 137.256" fill="#cc482f"/><polygon points="18.781 110.628 16.98 108.055 44.637 108.055 46.438 110.628 18.781 110.628" fill="#f7eb87"/><polygon points="75.124 94.805 76.925 97.378 62.003 97.378 60.202 94.805 75.124 94.805" fill="#691d14"/><polygon points="60.202 94.805 62.003 97.378 54.285 118.217 52.484 115.645 60.202 94.805" fill="#cc482f"/><polygon points="46.438 110.628 44.637 108.055 52.484 87.73 54.285 90.303 46.438 110.628" fill="#cc482f"/><polygon points="76.796 90.303 80.398 87.73 76.925 97.378 75.124 94.805 76.796 90.303" fill="#d05930"/><polygon points="54.285 90.303 52.484 87.73 80.398 87.73 76.796 90.303 54.285 90.303" fill="#f7eb87"/></g><polygon points="342.946 83.228 340.502 80.655 420.257 80.655 417.685 83.228 342.946 83.228" fill="#f7eb87"/><polygon points="417.685 83.228 420.257 80.655 420.257 99.951 417.685 97.378 417.685 83.228" fill="#d05930"/><polygon points="335.871 167.228 333.041 169.801 340.502 80.655 342.946 83.228 335.871 167.228" fill="#cc482f"/><polygon points="309.887 113.201 307.571 110.628 311.044 80.655 313.36 83.228 309.887 113.201" fill="#cc482f"/><polygon points="334.199 83.228 337.029 80.655 329.311 169.801 326.867 167.228 334.199 83.228" fill="#d05930"/><polygon points="313.36 83.228 311.044 80.655 337.029 80.655 334.199 83.228 313.36 83.228" fill="#f7eb87"/><polygon points="280.429 82.585 283.387 80.012 280.943 97.378 277.985 99.951 280.429 82.585" fill="#d05930"/><polygon points="259.59 82.585 257.403 80.012 283.387 80.012 280.429 82.585 259.59 82.585" fill="#f7eb87"/><polygon points="245.182 166.456 242.224 169.029 257.403 80.012 259.59 82.585 245.182 166.456" fill="#cc482f"/><polygon points="197.072 82.585 200.288 80.012 184.723 146.903 181.507 149.476 197.072 82.585" fill="#d05930"/><polygon points="250.842 82.585 253.93 80.012 240.165 158.609 238.107 156.037 250.842 82.585" fill="#d05930"/><polygon points="230.132 82.585 227.945 80.012 253.93 80.012 250.842 82.585 230.132 82.585" fill="#f7eb87"/><polygon points="176.233 82.585 174.303 80.012 200.288 80.012 197.072 82.585 176.233 82.585" fill="#f7eb87"/><polygon points="157.194 156.037 153.979 158.609 174.303 80.012 176.233 82.585 157.194 156.037" fill="#cc482f"/><polygon points="216.496 149.476 214.438 146.903 227.945 80.012 230.132 82.585 216.496 149.476" fill="#fcefb3"/><polygon points="59.173 166.456 55.571 169.029 86.83 80.012 88.631 82.585 59.173 166.456" fill="#cc482f"/><polygon points="88.631 82.585 86.83 80.012 149.219 80.012 145.746 82.585 88.631 82.585" fill="#f7eb87"/><polygon points="145.746 82.585 149.219 80.012 146.389 89.531 143.044 92.104 145.746 82.585" fill="#d05930"/></g><g style="isolation: isolate"><polygon points="586.328 158.609 586.328 158.609 588.129 169.801 588.129 169.801 586.328 158.609" fill="#818181"/><polygon points="781.599 151.277 797.421 151.277 797.421 151.277 781.599 151.277" fill="#a7a7a7"/><polygon points="691.296 147.547 748.796 147.547 748.796 147.547 691.296 147.547" fill="#a7a7a7"/><polygon points="509.403 147.547 509.403 147.547 511.332 169.801 511.332 169.801 509.403 147.547" fill="gray"/><polygon points="451.902 147.547 509.403 147.547 509.403 147.547 451.902 147.547" fill="#a7a7a7"/><polygon points="540.919 147.547 570.634 147.547 570.634 147.547 540.919 147.547" fill="#a7a7a7"/><polygon points="807.069 139.7 807.069 139.7 815.688 162.34 815.688 162.34 807.069 139.7" fill="#858585"/><polygon points="451.387 133.268 451.387 133.268 451.902 147.547 451.902 147.547 451.387 133.268" fill="gray"/><polygon points="789.317 129.152 817.617 129.152 817.617 129.152 789.317 129.152" fill="#a7a7a7"/><polygon points="709.047 113.329 764.619 113.329 764.619 113.329 709.047 113.329" fill="#a7a7a7"/><polygon points="764.619 113.329 764.619 113.329 784.429 169.801 784.429 169.801 764.619 113.329" fill="#848484"/><polygon points="506.315 112.686 506.315 112.686 508.116 133.268 508.116 133.268 506.315 112.686" fill="gray"/><polygon points="450.744 112.686 506.315 112.686 506.315 112.686 450.744 112.686" fill="#a7a7a7"/><polygon points="636.882 111.271 651.161 111.271 651.161 111.271 636.882 111.271" fill="#a7a7a7"/><polygon points="822.505 107.926 822.505 107.926 835.626 139.7 835.626 139.7 822.505 107.926" fill="#858585"/><polygon points="794.848 107.926 822.505 107.926 822.505 107.926 794.848 107.926" fill="#a7a7a7"/><polygon points="450.358 99.951 450.358 99.951 450.744 112.686 450.744 112.686 450.358 99.951" fill="gray"/><polygon points="705.06 99.951 705.06 99.951 709.047 113.329 709.047 113.329 705.06 99.951" fill="#838383"/><polygon points="535.259 99.951 535.259 99.951 540.919 147.547 540.919 147.547 535.259 99.951" fill="gray"/><polygon points="633.923 98.021 633.923 98.021 636.882 111.271 636.882 111.271 633.923 98.021" fill="#818181"/><polygon points="619.773 98.021 633.923 98.021 633.923 98.021 619.773 98.021" fill="#a7a7a7"/><polygon points="507.859 90.175 520.98 90.175 520.98 90.175 507.859 90.175" fill="#a7a7a7"/><polygon points="588.386 90.175 588.386 90.175 600.349 158.609 600.349 158.609 588.386 90.175" fill="#818181"/><polygon points="575.265 90.175 588.386 90.175 588.386 90.175 575.265 90.175" fill="#a7a7a7"/><polygon points="787.002 87.602 787.002 87.602 794.848 107.926 794.848 107.926 787.002 87.602" fill="#858585"/><polygon points="759.087 87.602 787.002 87.602 787.002 87.602 759.087 87.602" fill="#a7a7a7"/><polygon points="423.73 80.655 503.485 80.655 503.485 80.655 423.73 80.655" fill="#a7a7a7"/><polygon points="503.485 80.655 503.485 80.655 505.158 99.951 505.158 99.951 503.485 80.655" fill="gray"/><polygon points="616.172 80.655 616.172 80.655 619.773 98.021 619.773 98.021 616.172 80.655" fill="#818181"/><polygon points="643.957 80.655 669.942 80.655 669.942 80.655 643.957 80.655" fill="#a7a7a7"/><polygon points="669.942 80.655 669.942 80.655 693.354 169.801 693.354 169.801 669.942 80.655" fill="#828282"/><polygon points="590.187 80.655 616.172 80.655 616.172 80.655 590.187 80.655" fill="#a7a7a7"/><polygon points="519.951 80.655 573.721 80.655 573.721 80.655 519.951 80.655" fill="#a7a7a7"/><polygon points="573.721 80.655 573.721 80.655 575.265 90.175 575.265 90.175 573.721 80.655" fill="#818181"/><polygon points="673.415 80.655 753.17 80.655 753.17 80.655 673.415 80.655" fill="#a7a7a7"/><polygon points="753.17 80.655 753.17 80.655 759.859 99.951 759.859 99.951 753.17 80.655" fill="#848484"/><polygon points="585.17 167.228 588.129 169.801 529.342 169.801 531.657 167.228 585.17 167.228" fill="url(#bm)"/><polygon points="631.479 167.228 634.567 169.801 606.138 169.801 608.325 167.228 631.479 167.228" fill="url(#bn)"/><polygon points="690.009 167.228 693.354 169.801 664.925 169.801 666.983 167.228 690.009 167.228" fill="url(#bo)"/><polygon points="508.502 167.228 511.332 169.801 424.116 169.801 426.689 167.228 508.502 167.228" fill="url(#bp)"/><polygon points="780.827 167.228 784.429 169.801 697.213 169.801 699.142 167.228 780.827 167.228" fill="url(#bq)"/><polygon points="811.957 159.767 815.688 162.34 785.587 162.34 787.387 159.767 811.957 159.767" fill="url(#br)"/><polygon points="530.499 156.037 528.184 158.609 514.162 158.609 516.478 156.037 530.499 156.037" fill="url(#bs)"/><polygon points="583.369 156.037 586.328 158.609 588.129 169.801 585.17 167.228 583.369 156.037" fill="#d05930"/><polygon points="597.39 156.037 600.349 158.609 586.328 158.609 583.369 156.037 597.39 156.037" fill="url(#bt)"/><polygon points="531.657 167.228 529.342 169.801 528.184 158.609 530.499 156.037 531.657 167.228" fill="#cc482f"/><polygon points="787.387 159.767 785.587 162.34 781.599 151.277 785.329 153.85 787.387 159.767" fill="#cc482f"/><polygon points="785.329 153.85 781.599 151.277 797.421 151.277 801.152 153.85 785.329 153.85" fill="#f7eb87"/><polygon points="699.142 167.228 697.213 169.801 691.296 147.547 694.64 150.119 699.142 167.228" fill="#cc482f"/><polygon points="694.64 150.119 691.296 147.547 748.796 147.547 752.398 150.119 694.64 150.119" fill="#f7eb87"/><polygon points="449.329 150.119 451.902 147.547 509.403 147.547 507.087 150.119 449.329 150.119" fill="#f7eb87"/><polygon points="507.087 150.119 509.403 147.547 511.332 169.801 508.502 167.228 507.087 150.119" fill="#d05930"/><polygon points="538.603 150.119 540.919 147.547 570.634 147.547 573.593 150.119 538.603 150.119" fill="#f7eb87"/><polygon points="831.767 137.127 835.626 139.7 807.069 139.7 803.21 137.127 831.767 137.127" fill="url(#bu)"/><polygon points="803.21 137.127 807.069 139.7 815.688 162.34 811.957 159.767 803.21 137.127" fill="#d05930"/><polygon points="792.919 131.724 789.317 129.152 817.489 129.152 821.348 131.724 792.919 131.724" fill="#f7eb87"/><polygon points="801.152 153.85 797.421 151.277 789.317 129.152 792.919 131.724 801.152 153.85" fill="#cc482f"/><polygon points="746.352 131.467 744.423 134.04 687.694 134.04 689.623 131.467 746.352 131.467" fill="#691d14"/><polygon points="752.398 150.119 748.796 147.547 744.423 134.04 746.352 131.467 752.398 150.119" fill="#cc482f"/><polygon points="448.815 130.695 451.387 133.268 451.902 147.547 449.329 150.119 448.815 130.695" fill="#d05930"/><polygon points="505.286 130.695 508.116 133.268 451.387 133.268 448.815 130.695 505.286 130.695" fill="#691d14"/><polygon points="659.522 135.198 657.335 137.899 642.671 137.77 644.858 135.198 659.522 135.198" fill="#691d14"/><polygon points="666.983 167.228 664.925 169.801 657.335 137.899 659.522 135.198 666.983 167.228" fill="#cc482f"/><polygon points="641.77 121.562 639.712 124.135 625.176 124.135 622.089 121.562 641.77 121.562" fill="#691d14"/><polygon points="644.858 135.198 642.671 137.77 639.712 124.135 641.77 121.562 644.858 135.198" fill="#cc482f"/><polygon points="622.089 121.562 625.176 124.135 634.567 169.801 631.479 167.228 622.089 121.562" fill="#cc482f"/><polygon points="707.118 115.902 709.047 113.329 764.619 113.329 762.818 115.902 707.118 115.902" fill="#f7eb87"/><polygon points="762.818 115.902 764.619 113.329 784.429 169.801 780.827 167.228 762.818 115.902" fill="#d05930"/><polygon points="821.348 131.724 817.489 129.152 813.115 118.089 814.916 115.516 821.348 131.724" fill="#cc482f"/><polygon points="814.916 115.516 813.115 118.089 785.201 118.089 787.002 115.516 814.916 115.516" fill="#691d14"/><polygon points="504 115.259 506.315 112.686 508.116 133.268 505.286 130.695 504 115.259" fill="#d05930"/><polygon points="448.3 115.259 450.744 112.686 506.315 112.686 504 115.259 448.3 115.259" fill="#f7eb87"/><polygon points="634.824 113.844 636.882 111.271 651.161 111.271 654.377 113.844 634.824 113.844" fill="#f7eb87"/><polygon points="820.704 110.499 822.505 107.926 835.626 139.7 831.767 137.127 820.704 110.499" fill="#d05930"/><polygon points="793.047 110.499 794.848 107.926 822.505 107.926 820.704 110.499 793.047 110.499" fill="#f7eb87"/><polygon points="631.865 100.594 633.923 98.021 636.882 111.271 634.824 113.844 631.865 100.594" fill="#d05930"/><polygon points="617.715 100.594 619.773 98.021 633.923 98.021 631.865 100.594 617.715 100.594" fill="#f7eb87"/><polygon points="502.328 97.378 505.158 99.951 450.358 99.951 447.657 97.378 502.328 97.378" fill="#691d14"/><polygon points="447.657 97.378 450.358 99.951 450.744 112.686 448.3 115.259 447.657 97.378" fill="#d05930"/><polygon points="756.257 97.378 759.859 99.951 705.06 99.951 701.586 97.378 756.257 97.378" fill="#691d14"/><polygon points="701.586 97.378 705.06 99.951 709.047 113.329 707.118 115.902 701.586 97.378" fill="#d05930"/><polygon points="565.746 97.378 563.559 99.951 535.259 99.951 532.3 97.378 565.746 97.378" fill="#691d14"/><polygon points="532.3 97.378 535.259 99.951 540.919 147.547 538.603 150.119 532.3 97.378" fill="#cc482f"/><polygon points="573.593 150.119 570.634 147.547 563.559 99.951 565.746 97.378 573.593 150.119" fill="#fcefb3"/><polygon points="779.283 94.805 777.482 97.378 762.56 97.378 764.361 94.805 779.283 94.805" fill="#691d14"/><polygon points="787.002 115.516 785.201 118.089 777.482 97.378 779.283 94.805 787.002 115.516" fill="#cc482f"/><polygon points="516.478 156.037 514.162 158.609 507.859 90.175 510.689 92.747 516.478 156.037" fill="#cc482f"/><polygon points="573.078 92.747 575.265 90.175 588.386 90.175 586.199 92.747 573.078 92.747" fill="#f7eb87"/><polygon points="510.689 92.747 507.859 90.175 520.98 90.175 523.81 92.747 510.689 92.747" fill="#f7eb87"/><polygon points="586.199 92.747 588.386 90.175 600.349 158.609 597.39 156.037 586.199 92.747" fill="#d05930"/><polygon points="762.689 90.175 759.087 87.602 787.002 87.602 785.201 90.175 762.689 90.175" fill="#f7eb87"/><polygon points="785.201 90.175 787.002 87.602 794.848 107.926 793.047 110.499 785.201 90.175" fill="#d05930"/><polygon points="764.361 94.805 762.56 97.378 759.087 87.602 762.689 90.175 764.361 94.805" fill="#cc482f"/><polygon points="647.173 83.228 643.957 80.655 669.942 80.655 667.884 83.228 647.173 83.228" fill="#f7eb87"/><polygon points="654.377 113.844 651.161 111.271 643.957 80.655 647.173 83.228 654.377 113.844" fill="#cc482f"/><polygon points="614.113 83.228 616.172 80.655 619.773 98.021 617.715 100.594 614.113 83.228" fill="#d05930"/><polygon points="593.274 83.228 590.187 80.655 616.172 80.655 614.113 83.228 593.274 83.228" fill="#f7eb87"/><polygon points="608.325 167.228 606.138 169.801 590.187 80.655 593.274 83.228 608.325 167.228" fill="#cc482f"/><polygon points="667.884 83.228 669.942 80.655 693.354 169.801 690.009 167.228 667.884 83.228" fill="#d05930"/><polygon points="426.689 167.228 424.116 169.801 423.73 80.655 426.303 83.228 426.689 167.228" fill="#cc482f"/><polygon points="426.303 83.228 423.73 80.655 503.485 80.655 501.17 83.228 426.303 83.228" fill="#f7eb87"/><polygon points="501.17 83.228 503.485 80.655 505.158 99.951 502.328 97.378 501.17 83.228" fill="#d05930"/><polygon points="571.534 83.228 573.721 80.655 575.265 90.175 573.078 92.747 571.534 83.228" fill="#d05930"/><polygon points="689.623 131.467 687.694 134.04 673.415 80.655 676.76 83.228 689.623 131.467" fill="#cc482f"/><polygon points="751.24 83.228 753.17 80.655 759.859 99.951 756.257 97.378 751.24 83.228" fill="#d05930"/><polygon points="522.781 83.228 519.951 80.655 573.721 80.655 571.534 83.228 522.781 83.228" fill="#f7eb87"/><polygon points="523.81 92.747 520.98 90.175 519.951 80.655 522.781 83.228 523.81 92.747" fill="gray"/><polygon points="676.76 83.228 673.415 80.655 753.17 80.655 751.24 83.228 676.76 83.228" fill="#f7eb87"/></g></g><g opacity="0.81"><path d="M78.9832,125.2925a2.4728,2.4728,0,0,0-2.4441-3.4732H73.4518a1.9057,1.9057,0,0,0-1.8009,1.2863c0,.3859.6432.3859,2.4441.1287l.5145-.1287c2.3155-.1286,3.0873,1.5437,2.3155,3.4733l-3.4732,9.2618c-.6432,1.93.3859,3.4733,2.3155,3.4733H86.7014c2.0582,0,3.6019-.2573,3.6019-.6432s-1.6723-.6432-3.6019-.6432H77.9541c-2.0582,0-3.0873-1.415-2.3155-3.2159.6432-1.801,1.6723-3.3446,3.6019-3.3446h8.8759c2.0582,0,3.6019-.2573,3.6019-.6432s-1.6723-.6432-3.6019-.6432H80.9127a2.4335,2.4335,0,0,1-2.4441-3.4732Z" fill="#691d14" opacity="0.48" style="isolation: isolate"/></g><g opacity="0.44"><path d="M74.4809,120.9188c-1.0291,0-1.93.6432-1.93,1.0291,0,.2573.9005.2573,2.0582.2573h1.6723c1.0291,0,2.0582-.2573,2.1868-.6432s-.6432-.6432-1.6723-.6432Z" fill="#f7eb87"/></g><g opacity="0.81"><polygon points="167.1 107.283 169.801 106.769 191.283 106.769 193.856 107.155 194.242 105.611 191.669 105.225 170.187 105.225 167.614 105.611 167.1 107.283" fill="#691d14" opacity="0.48" style="isolation: isolate"/></g><g opacity="0.44"><path d="M174.8178,104.3247c-1.0291,0-1.8009.2572-1.5437.6431s1.2864.5146,2.3155.5146h7.461a3.3121,3.3121,0,0,0,2.3154-.6432c.2573-.3859-.5145-.6432-1.5436-.6432Z" fill="#f7eb87"/></g><g opacity="0.81"><path d="M256.8882,166.585l1.93-12.9924a.8565.8565,0,0,0-.9-1.029l-9.3905.1286a12.6662,12.6662,0,0,0-2.1868.2573l-.5146.1286c-.6432.1287-1.1577.5146-1.1577.9s.3859.6432,1.0291.5146l.5145-.1287a12.6783,12.6783,0,0,1,2.1869-.2573l7.7182-.1286a.8484.8484,0,0,1,.9005,1.0291l-1.5437,11.5773" fill="#691d14" opacity="0.48" style="isolation: isolate"/></g><path d="M256.245,172.245c-.5145-.7718-.9-.6432-.6432.3859l.3859,1.5437a17.1331,17.1331,0,0,0,1.2864,3.6018l.6432,1.2864c.5145.9.7718.9.5145-.1287l-.7718-3.2159A7.6446,7.6446,0,0,0,256.245,172.245Z" fill="#691d14"/><g opacity="0.44"><path d="M249.8132,151.6631c-1.0291,0-1.8009.2573-1.6723.6432a3.5081,3.5081,0,0,0,2.1868.5145H253.93c1.029,0,2.0582-.2573,2.1868-.6432s-.6432-.6432-1.6723-.6432Z" fill="#f7eb87"/></g><path d="M255.4732,166.4563l2.5727,9.0046a13.392,13.392,0,0,0,.7719,2.0582l.9,1.6723c.2573.5145.3859.5145.2573-.1286l-3.0873-12.6065" fill="#691d14" opacity="0.48" style="isolation: isolate"/><path d="M256.76,164.0122c-.1287-1.029-.3859-1.029-.6432,0l-.2573.9a8.4378,8.4378,0,0,0,.1286,3.6018l1.2864,3.6019c.3859,1.029.5145.9.3859-.1287l-.5145-3.3446a35.599,35.599,0,0,1-.3859-3.8591Z" fill="#2d000e"/><g opacity="0.81"><path d="M293.8071,107.026l-1.801.7718a5.8253,5.8253,0,0,1-2.0582.3859H256.245a6.5335,6.5335,0,0,1-2.1869-.3859l-.3859-.1286c-.5145-.1287-1.029-.6432-.9-1.0291s.6431-.5145,1.1577-.3859l.2573.1287a11.045,11.045,0,0,0,2.1868.3859h9.5192a1.1341,1.1341,0,0,0,1.1577-1.0291l1.8009-16.5942a1.2194,1.2194,0,0,1,1.1577-1.0291h8.3614a5.332,5.332,0,0,0,2.0582-.3859l.9005-.3859c.5145-.2573,1.0291-.1286.9.2573,0,.3859-.5146.9-1.0291,1.1577l-.9005.3859a6.0539,6.0539,0,0,1-2.0582.5146h-6.56a1.134,1.134,0,0,0-1.1577,1.0291l-1.6723,15.1791c-.1286.6432.3859,1.0291,1.0291,1.0291h20.196a5.3329,5.3329,0,0,0,2.0583-.3859l1.8009-.7718" fill="#691d14" opacity="0.48" style="isolation: isolate"/></g><g opacity="0.44"><path d="M265.3783,105.74c1.029,0,1.8009.2573,1.5436.5146a3.7032,3.7032,0,0,1-2.3154.5145h-6.56a3.3126,3.3126,0,0,1-2.3155-.6432c-.1286-.3859.5146-.6432,1.5437-.6432Z" fill="#f7eb87"/></g><g opacity="0.81"><path d="M104.3247,156.4227c.1286-.6432-.1287-.6432-.3859-.1287l-.7719,1.1577a9.7547,9.7547,0,0,0-.7718,2.0582l-1.1577,6.046a2.86,2.86,0,0,0,.3859,2.0582l3.7305,5.9173a15.59,15.59,0,0,0,1.2863,1.8009l1.6723,1.93c.3859.5145.5145.3859.1287-.1287l-5.4028-9.7764a5.332,5.332,0,0,1-.3859-2.0582Z" fill="#691d14" opacity="0.48" style="isolation: isolate"/></g><path d="M102.91,162.9831c-.2573-1.0291-.6432-1.0291-.9,0l-.5145,2.0582a3.7049,3.7049,0,0,0,.9,3.216l1.415,1.415c.7719.7718,1.0291.5145.7719-.5146L104.196,168c-.3859-1.0291-.7718-2.7014-1.0291-3.7305Z" fill="#2d000e"/><path d="M107.5406,177.1332a12.5813,12.5813,0,0,0-1.0291-1.415c-.6432-.7718-1.5436-2.1869-2.1868-2.9587l-.9005-1.2863c-.6432-.9-.7718-.7719-.2573.1286l1.6723,3.0873a30.3661,30.3661,0,0,0,1.6723,2.5727,6.6443,6.6443,0,0,1,.7718.9" fill="#691d14"/><path d="M94.9342,166.4563h4.245c1.0291,0,2.0582-.2572,2.0582-.6431s-.6432-.6432-1.6723-.6432l-5.0168.1286" fill="#f7eb87" opacity="0.74" style="isolation: isolate"/><path d="M113.4579,164.9127l-7.7182.1286c-1.0291,0-1.8009.2573-1.6723.6432a3.508,3.508,0,0,0,2.1868.5146h6.6891" fill="#f7eb87" opacity="0.74" style="isolation: isolate"/><g opacity="0.81"><polygon points="733.36 99.951 733.746 97.507 730.015 83.228 728.729 80.527 727.314 80.655 728.6 83.228 732.459 97.507 731.945 99.951 733.36 99.951" fill="#691d14" opacity="0.48" style="isolation: isolate"/></g><g opacity="0.44"><path d="M735.4181,96.6064c-1.0291,0-1.801.2573-1.6723.6432s1.1578.5146,2.1869.5146h5.5313c1.0291,0,2.0582-.2573,2.1869-.6432s-.5146-.6432-1.6723-.6432Z" fill="#f7eb87"/></g><g opacity="0.81"><polygon points="511.075 125.292 511.204 126.579 513.648 124.907 535.645 124.907 538.346 125.807 538.217 124.263 535.516 123.492 513.39 123.492 511.075 125.292" fill="#691d14" opacity="0.48" style="isolation: isolate"/></g><g opacity="0.44"><path d="M515.706,122.72c-1.0291,0-1.8009.2573-1.5437.6432a4.3486,4.3486,0,0,0,2.3155.5146H523.81a3.3125,3.3125,0,0,0,2.3154-.6432c.2573-.3859-.5146-.6432-1.5437-.6432Z" fill="#f7eb87"/></g><path d="M171.9877,188.8392c0,.3859.386.6432,1.0291.6432l56.4717-.1287c.6432,0,1.1578-.2573,1.1578-.6432s-.3859-.6431-1.0291-.6431l-56.4717.1286C172.5023,188.196,171.9877,188.4533,171.9877,188.8392Z" fill="#1f0008" opacity="0.48" style="isolation: isolate"/><path d="M178.1623,190.2542c-1.0291,0-1.0291-.1286,0-.2573l10.291-.7718a19.3343,19.3343,0,0,1,3.8591,0l7.9755.6432c1.0291.1286,1.0291.2573,0,.2573l-10.2909.3858h-3.8591Z" fill="#691d14"/><path d="M423.7305,190.5115c0,.3859.3859.6432,1.0291.6432l83.2281-.1287c.6432,0,1.1577-.2573,1.1577-.6432s-.3859-.6431-1.029-.6431l-83.2282.1286A1.0353,1.0353,0,0,0,423.7305,190.5115Z" fill="#1f0008" opacity="0.48" style="isolation: isolate"/><path d="M470.04,192.3124c-1.0291,0-1.0291-.1286,0-.1286l13.3783-1.0291a19.3343,19.3343,0,0,1,3.8591,0l10.42.6432c1.0291,0,1.0291.1286,0,.2572l-13.3783.6432c-1.029,0-2.83.1287-3.8591,0Z" fill="#691d14"/><path d="M141.758,173.0168l-7.4609,1.93c-1.0291.1286-1.8009-1.2864-2.3155-1.8009-.3859-.5146,0-.9,1.1577-.9l8.6187.7718" fill="#0b0000"/><path d="M241.709,188.196l2.1869,7.075a2.4447,2.4447,0,0,1-.6432,2.5728c-.6432.3859-1.2864-.1287-1.2864-1.1578l-.3859-8.6186" fill="#0b0000"/><g opacity="0.81"><polyline points="127.737 106.769 122.977 97.507 125.55 86.83 123.492 89.531 121.562 97.893 125.678 103.81 127.351 106.64" fill="#691d14" opacity="0.48" style="isolation: isolate"/></g><path d="M123.2343,94.2909c-.2573-1.029-.6432-1.029-.9,0l-.386,2.0582a3.7053,3.7053,0,0,0,.9,3.216l1.415,1.415c.7718.7718,1.0291.5145.7718-.5146l-.3859-1.1577c-.3859-1.0291-.7718-2.7014-1.0291-3.73Z" fill="#030303"/><path d="M126.3216,106.3828a9.2892,9.2892,0,0,1-.5145-.9005,28.5669,28.5669,0,0,0-1.6723-2.4441l-1.0291-1.415c-.6432-.9-.7719-.7718-.2573.1287l1.0291,2.1868a8.7661,8.7661,0,0,0,1.415,2.0582,6.6716,6.6716,0,0,0,.6432.3859" fill="#691d14"/><g opacity="0.81"><path d="M400.8331,183.1792c.2573-1.0291.6431-12.6065.9-13.3783.5146-1.5436,1.0291-2.5727,1.2864-2.5727h.1287l.3858-14.0215h16.8515v-1.415H402.1194L400.9617,167.1c-1.1577.5146-1.415,1.6723-1.5437,2.83-.1286.9.5146,11.9632.3859,12.6064" fill="#691d14" opacity="0.48" style="isolation: isolate"/></g><g opacity="0.44"><path d="M406.1072,151.02c-1.0291,0-1.8009.2573-1.5437.6432s1.2864.5145,2.3155.5145h7.3323a3.3126,3.3126,0,0,0,2.3155-.6432c.2572-.3859-.5146-.6431-1.5437-.6431Z" fill="#f7eb87"/></g><path d="M399.0322,173.2741c-.3859-.9-.6432-.7718-.6432.2573v1.5436a12.4359,12.4359,0,0,0,.5145,3.7305l.3859,1.415c.2573,1.0291.5145,1.0291.5145-.1286V176.876A16.2865,16.2865,0,0,0,399.0322,173.2741Z" fill="#691d14"/><path d="M401.4762,168.2573c.2573-1.0291-.1286-1.1578-.7718-.3859l-.6432.7718a3.8761,3.8761,0,0,0-.5145,3.3446l.2573.7718c.3859,1.0291.7718,1.0291.9005-.1287v-.2572a37.7151,37.7151,0,0,1,.6431-3.7305Z" fill="#2d000e"/><path d="M400.19,168.7718c-.3859,1.0291-.1287,1.1577.6432.3859l.5145-.5146a4.4551,4.4551,0,0,0,1.1577-3.3445v-.3859c-.1286-1.0291-.5145-1.0291-.7718-.1287v.1287c-.3859,1.0291-.9,2.5727-1.2864,3.6018Z" fill="#2d000e"/><path d="M320.95,188.4533l9.7764-1.2864a3.62,3.62,0,0,1,2.9586,1.1577c.5146.7719.1287,1.4151-.9,1.2864L320.95,188.4533" fill="#0b0000"/><path d="M657.464,186.3951a1.8407,1.8407,0,0,1,2.3154-1.2864l7.2037,2.1869c1.0291.2573,1.0291.6431,0,.9l-8.6187,1.5437c-1.0291.1286-1.6723-.5145-1.415-1.5437Z" fill="#0b0000"/><path d="M656.5635,186.3951a3.42,3.42,0,0,0,1.0291-3.0873L654.8912,172.76c-.2572-1.029-.5145-1.029-.6431,0l-.7718,14.15c0,1.0291.5145,1.415,1.4149.7719Z" fill="url(#bv)"/><path d="M598.2909,177.7764" fill="#29282a"/><path d="M599.5773,187.0383a3.8,3.8,0,0,1,2.9586-1.0291l10.0337,1.5437q1.5436.1929,0,.3858l-12.0919.3859C599.4487,188.3246,599.0628,187.81,599.5773,187.0383Z" fill="#0b0000"/><path d="M600.3492,187.4242a2.989,2.989,0,0,0,.5146-2.7014l-1.2864-4.3737c-.2573-1.0291-.5146-1.0291-.5146.1287l.1286,5.7886Q599.3843,188.0031,600.3492,187.4242Z" fill="url(#bw)"/><path d="M604.2083,189.611c-1.0291.1287-1.0291-.1286-.1286-.3859l1.6723-.5145a12.2818,12.2818,0,0,1,3.7305-.3859l4.245.3859c1.029.1286,1.029.2573,0,.2573l-4.245.2573c-1.0291,0-2.83.1286-3.8592.2572Z" fill="#691d14"/><g opacity="0.81"><path d="M336.7718,125.0352l-.1286,1.8009a6.28,6.28,0,0,1,2.9586-1.2864c5.5314-.2573,18.6524-.5145,24.4411,1.1578l.1286-1.4151c-5.9173-1.8009-18.781-1.415-24.57-1.029A4.7911,4.7911,0,0,0,336.7718,125.0352Z" fill="#691d14" opacity="0.48" style="isolation: isolate"/></g><g opacity="0.44"><path d="M341.66,122.72c-1.0291,0-1.8009.3859-1.6722.6432a3.508,3.508,0,0,0,2.1868.5146l5.0168-.1287c1.0291,0,2.0582-.3859,2.1869-.7718s-.6432-.6432-1.6723-.6432Z" fill="#f7eb87"/></g><g opacity="0.81"><path d="M474.1562,80.6554c.1286.2573,1.5436,2.4441,1.6722,2.7014,2.4441,7.59.9005,12.6064.2573,14.0214l-1.2863,2.5728,1.2863.1286a26.4293,26.4293,0,0,0,1.5437-2.5727c.7718-1.93,2.1868-6.6892-.2573-14.15,0-.1286-1.5437-2.4441-1.5437-2.7014Z" fill="#691d14" opacity="0.48" style="isolation: isolate"/></g><path d="M476.4717,98.2787c-.5146-.2573-.5146-1.2864-.1287-2.1868l1.0291-2.0582c.3859-.9.7718-.9.6432.1286l-.2573,2.7014C477.5008,97.8928,476.9862,98.536,476.4717,98.2787Z" fill="#030303"/><path d="M476.4717,97.8928a5.4721,5.4721,0,0,0-2.1869,2.3155l-.7718,1.93c-.3859,1.0291-.2573,1.0291.3859.2573L476.6,98.7933C477.3721,98.0214,477.2435,97.5069,476.4717,97.8928Z" fill="#2d000e"/><g opacity="0.44"><path d="M464.8943,96.6064c-1.029,0-1.8009.2573-1.5436.6432a4.3481,4.3481,0,0,0,2.3154.5146h7.3324a3.3123,3.3123,0,0,0,2.3154-.6432c.2573-.3859-.5145-.6432-1.5437-.6432Z" fill="#f7eb87"/></g><g opacity="0.81"><polygon points="465.923 147.547 464.38 147.547 462.707 150.119 462.965 167.228 464.38 169.801 465.795 169.801 464.38 167.228 464.38 150.119 465.923 147.547" fill="#691d14" opacity="0.48" style="isolation: isolate"/></g><path d="M465.28,169.93c.5146-.2573.3859-.9-.2573-1.5437l-.5145-.5145c-.7718-.6432-1.1577-.3859-.7718.5145v.2573C463.9939,169.6723,464.7657,170.1868,465.28,169.93Z" fill="#2d000e"/><path d="M762.4319,192.57l6.6891,1.0291a3.1158,3.1158,0,0,0,2.83-1.415l.1287-.3859c.5145-.9,0-1.5436-1.0291-1.2864l-8.6187,2.0582" fill="#2d000e"/><g opacity="0.81"><polyline points="464.38 169.801 467.724 175.461 471.326 178.034 465.795 169.801" fill="#691d14" opacity="0.48" style="isolation: isolate"/></g><path d="M467.853,171.6018c-.5146-.9-.7719-.7718-.5146.2573l.1287.3859a7.0138,7.0138,0,0,0,1.9295,3.0873l1.6723,1.415c.7718.6432.9005.6432.2573-.2573l-1.1577-1.415c-.6432-.9-1.5437-2.3155-2.1869-3.2159Z" fill="#691d14"/><g opacity="0.81"><path d="M572.4349,158.0949a5.4723,5.4723,0,0,0-.2573,1.415l.6432,7.0751a5.278,5.278,0,0,1-.1286,1.415l-3.8591,18.6524c-.1286.3859,0,.3859.1286,0l2.7014-7.2037a5.801,5.801,0,0,0,.3859-1.415l2.3154-10.1623a5.2784,5.2784,0,0,0,.1286-1.4151l-1.1578-9.2618c0-.3859-.2572-.3859-.3859-.1287Z" fill="#691d14" opacity="0.48" style="isolation: isolate"/></g><path d="M573.2067,162.8545c.1286-1.0291.5146-1.0291.6432,0l.5146,2.7014a8.6,8.6,0,0,1,.1286,3.0873,28.6364,28.6364,0,0,1-1.0291,3.0873l-1.0291,2.83c-.3859,1.0291-.5146.9005-.3859-.1286l.3859-2.5728c.1286-1.0291.2573-2.4441.2573-3.0873s.1286-2.0582.2573-3.0872Z" fill="#1f0008" opacity="0.48" style="isolation: isolate"/><path d="M574.75,174.0459c-.1286-.9-.7718-.9-1.1578,0l-.3859.7719a8.6307,8.6307,0,0,0-.7718,3.6018v1.6722c0,1.0291.3859,1.1578.7718.1287l1.1578-2.83A5.769,5.769,0,0,0,574.75,174.0459Z" fill="#691d14"/><g opacity="0.44"><path d="M583.4977,165.8132l-6.1746.1286c-1.0291,0-1.8009.2573-1.6722.6432a3.5081,3.5081,0,0,0,2.1868.5145h5.2741" fill="#f7eb87"/></g><g opacity="0.44"><path d="M553.7826,167.2282h15.05a3.7143,3.7143,0,0,0,2.4441-.6432c.2573-.3859-.2573-.6432-1.4149-.6432l-17.2374.2573" fill="#f7eb87"/></g><g opacity="0.81"><path d="M658.879,142.4012v1.415l15.5651-.6432L679.59,167.1a24.34,24.34,0,0,0-.6432,2.9587l-.2573,1.9295-.3859,3.9878,3.3445-9.0046-5.7886-25.2129Z" fill="#691d14" opacity="0.48" style="isolation: isolate"/></g><path d="M679.9755,164.1409c-.1286-1.0291.1286-1.1577.5146-.1287l.1286.5146c.2572,1.0291.6431,1.9295.6431,2.1868a10.5054,10.5054,0,0,1-.6431,2.1869l-1.0291,2.5727c-.3859,1.0291-.5146.9005-.3859-.1286l.3859-2.3155c.1286-1.0291.3859-2.0582.3859-2.1868v-2.7014Z" fill="#1f0008" opacity="0.48" style="isolation: isolate"/><g opacity="0.44"><path d="M665.8254,141.3721c-1.0291,0-1.801.2573-1.6723.6432s1.1578.5145,2.1869.5145h3.6018c1.0291,0,2.0582-.2572,2.1868-.6431s-.6431-.6432-1.6722-.6432Z" fill="#f7eb87"/></g><g opacity="0.44"><path d="M580.7963,101.4946c-1.029,0-1.8009.2573-1.6722.6432s1.1577.5146,2.1868.5146h3.6018c1.0291,0,2.0582-.2573,2.1869-.6432s-.6432-.6432-1.6723-.6432Z" fill="#f7eb87"/></g><path d="M30.6156,173.5314l10.5483.3859c1.0291,0,1.0291.2573,0,.5145l-8.7474,1.93" fill="#1f0008"/><path d="M34.8607,176.49c-1.0291.1287-1.0291-.1286-.1287-.3859l1.6723-.5145a18.8851,18.8851,0,0,1,3.73-.6432h.9c1.0291,0,1.0291.1286.1287.3859l-1.0291.2573c-1.0291.2573-2.7014.6432-3.73.7718Z" fill="#691d14"/><g opacity="0.81"><path d="M801.023,162.0827a3.2165,3.2165,0,0,1-1.2864-1.415c-.1286-.5146-.3859-1.6723-.6432-2.7014l-.1286-.6432c-.2573-1.0291,0-1.1577.3859-.1286l.3859.9c.5146.9,1.1578,2.4441,1.5437,3.216C801.6662,161.954,801.5375,162.34,801.023,162.0827Z" fill="#691d14" opacity="0.48" style="isolation: isolate"/></g><g opacity="0.81"><path d="M69.464,87.73A3.5749,3.5749,0,0,0,67.92,89.2741a7.5214,7.5214,0,0,0-.5146,2.4441c0,.7718.2573.7718.386,0a10.2667,10.2667,0,0,1,1.5436-2.83C69.9786,87.9877,69.9786,87.4732,69.464,87.73Z" fill="#691d14" opacity="0.48" style="isolation: isolate"/></g><g opacity="0.81"><polygon points="746.224 139.828 746.481 141.243 749.054 140.343 771.436 140.343 774.395 140.986 773.752 139.443 770.793 138.928 748.668 138.928 746.224 139.828" fill="#691d14" opacity="0.48" style="isolation: isolate"/></g><path d="M744.8086,140.6a1.1545,1.1545,0,0,1,1.2863-1.6723l3.0874.2573c1.0291.1287,1.1577.6432.2573,1.1577l-2.1869,1.2864a1.8,1.8,0,0,1-2.4441-1.0291Z" fill="#0b0000"/><g opacity="0.44"><path d="M755.2281,138.0275c-1.029,0-1.8009.2573-1.5436.6432s1.1578.5146,2.1868.5146h6.046c1.0291,0,2.0582-.2573,2.1868-.6432s-.5145-.6432-1.5436-.6432Z" fill="#f7eb87"/></g><g opacity="0.81"><polygon points="603.308 154.622 606.009 153.207 628.521 153.335 631.351 153.979 630.965 152.178 628.521 151.663 605.623 151.663 603.051 152.692 603.308 154.622" fill="#691d14" opacity="0.48" style="isolation: isolate"/></g><g opacity="0.44"><path d="M611.026,150.7626c-1.029,0-1.8009.2573-1.5436.6432s1.2864.5145,2.3154.5145h7.461a3.3125,3.3125,0,0,0,2.3154-.6432c.2573-.3858-.5146-.6431-1.5436-.6431Z" fill="#f7eb87"/></g><path d="M716.7657,166.7136c0-.7718-.7718-.2573-1.6722,1.0291l-.5146.7718c-.9,1.2864-.7718,1.6723.2573.9A4.47,4.47,0,0,0,716.7657,166.7136Z" fill="#1f0008" opacity="0.48" style="isolation: isolate"/><g opacity="0.44"><path d="M718.5666,156.4227c-1.0291,0-1.801.2573-1.6723.6432a3.5092,3.5092,0,0,0,2.1869.5145h3.6018c1.0291,0,2.0582-.2573,2.1868-.6432s-.6431-.6432-1.6722-.6432Z" fill="#f7eb87"/></g><path d="M785.072,191.6692l-.5146,7.0751a2.1974,2.1974,0,0,1-2.0582,1.9295H780.57c-1.0291,0-1.415-.7718-.9-1.5437l5.0169-7.3323" fill="#0b0000"/><g opacity="0.81"><polygon points="244.668 133.654 242.095 133.011 231.032 132.882 234.505 134.297 241.709 134.683 244.282 135.583 244.668 133.654" fill="#691d14" opacity="0.48" style="isolation: isolate"/></g><path d="M763.461,193.9847c-1.0291-.3859-.9-.6432.1286-.5146h.9a12.8657,12.8657,0,0,1,3.7305.7719c1.0291.3858.9.6431-.1286.6431h-.2573a18.8946,18.8946,0,0,1-3.7305-.6431Z" fill="#691d14"/><g><path d="M96.0919,131.0812l-.6432-.3859a6.9262,6.9262,0,0,0-3.6018-.6432l-1.1578.1286c-.9.1287-.9,1.1577,0,1.1577l.6432.1287a20.1687,20.1687,0,0,1,3.73,1.0291l.2573.1286c.1286,0,.2572,0,.2572.1287l.5146-1.6723Z" fill="#2d000e"/><path d="M91.3323,138.1562l-2.5727.1286c-1.0291.2573-1.0291.5146.1286.6432l3.3446,1.1577a1.9977,1.9977,0,0,0,1.2864-.1286l.3859-1.1577A3.0411,3.0411,0,0,0,91.3323,138.1562Z" fill="#2d000e"/></g><path d="M254.83,106.64l-.5145-.2573a2.5442,2.5442,0,0,0-1.2864-.2573l-.2573,1.2864a1.9948,1.9948,0,0,0,1.5437.2573h.3859C255.6018,107.5406,255.7305,107.1547,254.83,106.64Z" fill="#2d000e"/><path d="M282.3584,86.9587l-1.1578.5145c-.9.5145-.9.7718.1287.5145l.9005-.1286.1286-.9Z" fill="#2d000e"/><path d="M293.4211,105.9969l-1.1577.5146c-.9.5145-.9.7718.1286.5145l1.2864-.1286.1287-1.1578C293.8071,105.8683,293.55,105.9969,293.4211,105.9969Z" fill="#2d000e"/><path d="M360.9556,125.0352c-1.0291,0-1.1578.2573-.1287.6432l3.216,1.2863.1286-1.6722Z" fill="#2d000e"/><path d="M463.608,148.833l-.1287.2573c-.3859,1.0291,0,1.2864.9.6432l.6432-.5145c.6432-.6432.9-1.2864.5145-1.5437h-1.0291C464.1225,147.804,463.8652,148.3185,463.608,148.833Z" fill="#2d000e"/><path d="M512.3614,124.5207l-1.2864.7718.1287,1.5436,1.5436-1.8009C513.5191,124.2634,513.2619,124.0061,512.3614,124.5207Z" fill="#2d000e"/><path d="M537.8315,124.2634l-2.1868-.2573c-.6432-.1286-.6432.1287-.1286.3859L537.96,125.55c.2573.1287.2573.1287.3859,0l-.1286-1.1577A.4728.4728,0,0,0,537.8315,124.2634Z" fill="#2d000e"/><g opacity="0.81"><path d="M588.9005,102.781a5.8261,5.8261,0,0,0-2.0582-.3859h-9.0046c-.6432,0-1.1578.2573-1.1578.6432s.5146.6432,1.1578.6432h9.1332a5.3943,5.3943,0,0,1,2.0582.5145l2.1868,1.2864-.3859-1.93Z" fill="#691d14" opacity="0.48" style="isolation: isolate"/></g><g><g opacity="0.81"><path d="M726.1562,149.09c0,.9-.3859.9-.9,0l-.3859-.5145a2.5682,2.5682,0,0,1-.3859-1.0291h-.1286a1.399,1.399,0,0,0,.1286.6432l.3859.6432a9.6354,9.6354,0,0,1,.6432,2.0582l.7718,5.0168a.8565.8565,0,0,1-.9,1.0291H714.45a.8484.8484,0,0,0-.9,1.0291l1.801,7.59a2.1705,2.1705,0,0,1-.5146,1.8009l-1.415,1.415c-.3859.3859-.2573.7718.2573.7718h0a2.4567,2.4567,0,0,0,1.8009-.9l1.0291-1.1577a2.0906,2.0906,0,0,0,.3859-1.9295l-1.6722-6.5605a.7794.7794,0,0,1,.7717-1.0291l10.9342.1286a.8484.8484,0,0,0,.9-1.029l-1.0291-6.4319a9.6354,9.6354,0,0,0-.6432-2.0582l-.3859-.6432a2.8043,2.8043,0,0,0-.5146-.6432h0A2.4325,2.4325,0,0,1,726.1562,149.09Z" fill="#691d14" opacity="0.48" style="isolation: isolate"/></g><path d="M724.9984,148.5758l.3859.5145c.5146.9.9.7719.9,0a2.13,2.13,0,0,0-.6432-1.5436h-.9A1.1341,1.1341,0,0,0,724.9984,148.5758Z" fill="#691d14" opacity="0.48" style="isolation: isolate"/><path d="M724.9984,148.5758l.3859.5145c.5146.9.9.7719.9,0a2.13,2.13,0,0,0-.6432-1.5436h-.9A1.1341,1.1341,0,0,0,724.9984,148.5758Z" fill="#1f0008" opacity="0.48" style="isolation: isolate"/><path d="M725.1271,147.2894Z" fill="#1f0008"/></g><path d="M733.6171,97.5069l-.9-2.83c-.6432-1.029-.5146-.9-.5146.1287l.2573,2.4441-.2573,1.2864c-.2573.7718-.1286,1.2863.2573,1.5436h.6432A3.3655,3.3655,0,0,0,733.6171,97.5069Z" fill="#030303"/><path d="M667.6263,142.4012h-8.3614a1.6319,1.6319,0,0,0-.7718.1286l.5146,1.801h1.0291l7.7182-1.5437C668.6554,142.53,668.6554,142.4012,667.6263,142.4012Z" fill="#0b0000"/></g></svg>
